<svg id="Layer_2" data-name="Layer 2" xmlns="http://www.w3.org/2000/svg" xmlns:xlink="http://www.w3.org/1999/xlink" viewBox="0 0 267 330.19"><defs><style>.cls-1{fill:url(#radial-gradient);}.cls-2{fill:#29235c;opacity:0.3;}.cls-3{fill:#fff;}</style><radialGradient id="radial-gradient" cx="-1351.31" cy="-9954.01" r="207.74" gradientTransform="translate(-9852.68 1455.34) rotate(90)" gradientUnits="userSpaceOnUse"><stop offset="0" stop-color="#ff6ef0"/><stop offset="0.29" stop-color="#fa69ee"/><stop offset="0.63" stop-color="#eb5ce7"/><stop offset="1" stop-color="#d447dc"/></radialGradient></defs><title>girls_only</title><polygon class="cls-1" points="0 267.22 0 0 267 0 267 267.22 133.27 330.19 0 267.22"/><path class="cls-2" d="M266.76,267.22V170.13l-68.64-68.64q-0.86-.88-1.75-1.75l-1.18-1.18,0,0A91.2,91.2,0,0,0,66.25,227.5l0,0L67,228.29q1.26,1.31,2.57,2.57l87.85,87.85Z"/><path class="cls-3" d="M132.76,74A91.21,91.21,0,1,0,224,165.22,91.21,91.21,0,0,0,132.76,74ZM85.05,229.92V210c0-10.26,6.61-16.43,16.34-19.67a104,104,0,0,1,16.8-4l0.8-3.09a2.4,2.4,0,0,1,2.32-2.39l0.07-2.14c-6.54-.85-14.89-2.55-17.24-5.58,2.44-2,2.42-13.6,2.16-21a69.71,69.71,0,0,1,1.24-15.92,14.3,14.3,0,0,1,.66-2.59c3-12.89,11.09-20.37,24.55-20.37,7.42,0,16.31,1.2,17.26,6.46,3.48,0.7,6.08,6.78,7.46,14.17a72.65,72.65,0,0,1,1.51,8,38.33,38.33,0,0,1,.26,7.66c0,1,0,1.81,0,2.77,0,0.07,0,.14,0,0.21-0.25,7.39-.23,18.68,2.17,20.6-2.36,3-10.74,4.74-17.31,5.59l0.07,2.16a2.39,2.39,0,0,1,2,2.36l0.79,3a104.25,104.25,0,0,1,16.89,4c9.77,3.22,16.41,9.41,16.41,19.69v20.16A79.29,79.29,0,0,1,85.05,229.92ZM195.5,215.14V215l0,0.07Z"/></svg>