<svg xmlns="http://www.w3.org/2000/svg" xmlns:xlink="http://www.w3.org/1999/xlink" viewBox="0 0 1388.8 616.31"><defs><style>.cls-1{fill:none;}.cls-2{isolation:isolate;}.cls-3{fill:url(#radial-gradient);}.cls-4{clip-path:url(#clip-path);}.cls-16,.cls-5,.cls-6{opacity:0.4;mix-blend-mode:multiply;}.cls-5{fill:url(#radial-gradient-2);}.cls-7{fill:url(#linear-gradient);}.cls-12,.cls-18,.cls-8{opacity:0.3;}.cls-9{fill:url(#radial-gradient-3);}.cls-10{opacity:0.7;}.cls-11{clip-path:url(#clip-path-2);}.cls-12,.cls-15{mix-blend-mode:lighten;}.cls-12{fill:url(#radial-gradient-4);}.cls-13,.cls-15{opacity:0.2;}.cls-14{clip-path:url(#clip-path-3);}.cls-15{fill:url(#radial-gradient-5);}.cls-16{fill:url(#linear-gradient-2);}.cls-17,.cls-19{fill:#fff;}.cls-17{opacity:0.1;}.cls-18{fill:#29235c;}.cls-20{fill:url(#radial-gradient-6);}</style><radialGradient id="radial-gradient" cx="-1411.81" cy="499.63" r="1094.47" gradientTransform="translate(1352.34 121.71) scale(0.6 0.37)" gradientUnits="userSpaceOnUse"><stop offset="0" stop-color="#4c5470"/><stop offset="0.24" stop-color="#474f6a"/><stop offset="0.57" stop-color="#3a4058"/><stop offset="0.96" stop-color="#25293b"/><stop offset="0.99" stop-color="#222638"/></radialGradient><clipPath id="clip-path"><rect class="cls-1" x="315" y="166.6" width="370" height="246"/></clipPath><radialGradient id="radial-gradient-2" cx="-627.51" cy="5993.9" r="170.63" gradientTransform="translate(-5471.27 -273.67) rotate(-90) scale(0.7 1)" gradientUnits="userSpaceOnUse"><stop offset="0"/><stop offset="0.12" stop-color="#040404"/><stop offset="0.25" stop-color="#101010"/><stop offset="0.37" stop-color="#252525"/><stop offset="0.5" stop-color="#414141"/><stop offset="0.63" stop-color="#666"/><stop offset="0.76" stop-color="#939393"/><stop offset="0.88" stop-color="#c7c7c7"/><stop offset="1" stop-color="#fff"/></radialGradient><linearGradient id="linear-gradient" x1="-322.61" y1="-8907.21" x2="-322.61" y2="-9241.21" gradientTransform="translate(-8574.21 490.21) rotate(90)" gradientUnits="userSpaceOnUse"><stop offset="0" stop-color="#fff"/><stop offset="0.2"/><stop offset="0.8"/><stop offset="1" stop-color="#fff"/></linearGradient><radialGradient id="radial-gradient-3" cx="-219.58" cy="-9042.53" r="207.74" gradientTransform="translate(-8574.21 490.21) rotate(90)" gradientUnits="userSpaceOnUse"><stop offset="0" stop-color="#ff6ef0"/><stop offset="0.29" stop-color="#fa69ee"/><stop offset="0.63" stop-color="#eb5ce7"/><stop offset="1" stop-color="#d447dc"/></radialGradient><clipPath id="clip-path-2"><rect class="cls-1" x="170" y="-0.4" width="660" height="167"/></clipPath><radialGradient id="radial-gradient-4" cx="-337.52" cy="-5138.57" r="165.74" gradientTransform="translate(-9432.04 511.45) rotate(90) scale(1.02 1.93)" gradientUnits="userSpaceOnUse"><stop offset="0" stop-color="#fff"/><stop offset="0.01" stop-color="#fbfbfb"/><stop offset="0.18" stop-color="#b9b9b9"/><stop offset="0.35" stop-color="#828282"/><stop offset="0.5" stop-color="#585858"/><stop offset="0.64" stop-color="#393939"/><stop offset="0.76" stop-color="#272727"/><stop offset="0.84" stop-color="#202020"/><stop offset="1"/></radialGradient><clipPath id="clip-path-3"><rect class="cls-1" x="211" y="164.6" width="578" height="2"/></clipPath><radialGradient id="radial-gradient-5" cx="-301.47" cy="-5989.62" r="170.63" gradientTransform="translate(-10930.4 511.45) rotate(90) scale(1.02 1.91)" gradientUnits="userSpaceOnUse"><stop offset="0.35" stop-color="#fff"/><stop offset="0.37" stop-color="#f0f0f0"/><stop offset="0.42" stop-color="#c7c7c7"/><stop offset="0.48" stop-color="#868686"/><stop offset="0.56" stop-color="#2e2e2e"/><stop offset="0.6"/></radialGradient><linearGradient id="linear-gradient-2" x1="-323.61" y1="-9074.71" x2="-292.61" y2="-9074.71" gradientTransform="translate(-8574.21 490.21) rotate(90)" gradientUnits="userSpaceOnUse"><stop offset="0"/><stop offset="0.03" stop-color="#0d0d0d"/><stop offset="0.25" stop-color="#555"/><stop offset="0.44" stop-color="#929292"/><stop offset="0.62" stop-color="#c1c1c1"/><stop offset="0.78" stop-color="#e3e3e3"/><stop offset="0.91" stop-color="#f8f8f8"/><stop offset="1" stop-color="#fff"/></linearGradient><radialGradient id="radial-gradient-6" cx="-229.5" cy="-9797.34" r="207.74" xlink:href="#radial-gradient-3"/></defs><title>AdobeStock_100028507 [Converted]</title><g class="cls-2"><g id="Layer_1" data-name="Layer 1"><rect class="cls-3" width="1000" height="616.31"/><g class="cls-4"><ellipse class="cls-5" cx="500.45" cy="166.53" rx="170.01" ry="119.7"/></g><g class="cls-6"><rect class="cls-7" x="333" y="166.6" width="334" height="2"/></g><polygon class="cls-8" points="366 166.6 635 166.6 635 434.49 500.26 497.97 366 434.49 366 166.6"/><polygon class="cls-9" points="367 433.81 367 166.6 634 166.6 634 433.81 500.27 496.79 367 433.81"/><g class="cls-10"><g class="cls-11"><path class="cls-12" d="M500.82,1.87C683,1.87,830.64,89.62,830.64,186S683,330.61,500.82,330.61,171,282.39,171,186,318.66,1.87,500.82,1.87Z"/></g></g><g class="cls-13"><g class="cls-14"><ellipse class="cls-15" cx="500.79" cy="203.11" rx="325.65" ry="174.52"/></g></g><rect class="cls-16" x="367" y="166.6" width="267" height="31"/><polygon class="cls-17" points="631.44 166.75 631.44 432.46 500.53 494.51 369.63 432.46 369.63 166.75 367.49 166.75 367.49 433.81 500.3 496.79 500.53 496.68 500.77 496.79 633.58 433.81 633.58 166.75 631.44 166.75"/><path class="cls-18" d="M634,433.81V336.72l-68.64-68.64q-0.86-.88-1.75-1.75l-1.18-1.18,0,0A91.2,91.2,0,0,0,433.49,394.1l0,0,0.76,0.76q1.26,1.31,2.57,2.57l87.85,87.85Z"/><path class="cls-19" d="M500,240.48a91.21,91.21,0,1,0,91.21,91.21A91.21,91.21,0,0,0,500,240.48ZM452.3,396.4v-20c0-10.26,6.61-16.43,16.34-19.67a104,104,0,0,1,16.8-4l0.8-3.09a2.4,2.4,0,0,1,2.32-2.39l0.07-2.14c-6.54-.85-14.89-2.55-17.24-5.58,2.44-2,2.42-13.6,2.16-21a69.71,69.71,0,0,1,1.24-15.92,14.3,14.3,0,0,1,.66-2.59c3-12.89,11.09-20.37,24.55-20.37,7.42,0,16.31,1.2,17.26,6.46,3.48,0.7,6.08,6.78,7.46,14.17a72.65,72.65,0,0,1,1.51,8,38.33,38.33,0,0,1,.26,7.66c0,1,0,1.81,0,2.77,0,0.07,0,.14,0,0.21-0.25,7.39-.23,18.68,2.17,20.6-2.36,3-10.74,4.74-17.31,5.59l0.07,2.16a2.39,2.39,0,0,1,2,2.36l0.79,3a104.25,104.25,0,0,1,16.89,4c9.77,3.22,16.41,9.41,16.41,19.69v20.16A79.29,79.29,0,0,1,452.3,396.4Zm110.45-14.79v-0.1l0,0.07Z"/></g><g id="Layer_2" data-name="Layer 2"><polygon class="cls-20" points="1121.8 423.89 1121.8 156.67 1388.8 156.67 1388.8 423.89 1255.07 486.86 1121.8 423.89"/><path class="cls-18" d="M1388.56,423.89V326.8l-68.64-68.64q-0.86-.88-1.75-1.75l-1.18-1.18,0,0a91.2,91.2,0,0,0-128.92,128.92l0,0,0.76,0.76q1.26,1.31,2.57,2.57l87.85,87.85Z"/><path class="cls-19" d="M1254.56,230.68a91.21,91.21,0,1,0,91.21,91.21A91.21,91.21,0,0,0,1254.56,230.68Zm-47.7,155.92v-20c0-10.26,6.61-16.43,16.34-19.67a104,104,0,0,1,16.8-4l0.8-3.09a2.4,2.4,0,0,1,2.32-2.39l0.07-2.14c-6.54-.85-14.89-2.55-17.24-5.58,2.44-2,2.42-13.6,2.16-21a69.71,69.71,0,0,1,1.24-15.92,14.3,14.3,0,0,1,.66-2.59c3-12.89,11.09-20.37,24.55-20.37,7.42,0,16.31,1.2,17.26,6.46,3.48,0.7,6.08,6.78,7.46,14.17a72.65,72.65,0,0,1,1.51,8,38.33,38.33,0,0,1,.26,7.66c0,1,0,1.81,0,2.77,0,0.07,0,.14,0,0.21-0.25,7.39-.23,18.68,2.17,20.6-2.36,3-10.74,4.74-17.31,5.59l0.07,2.16a2.39,2.39,0,0,1,2,2.36l0.79,3a104.25,104.25,0,0,1,16.89,4c9.77,3.22,16.41,9.41,16.41,19.69v20.16A79.29,79.29,0,0,1,1206.86,386.59Zm110.45-14.79v-0.1l0,0.07Z"/></g></g></svg>