<svg id="Layer_1" data-name="Layer 1" xmlns="http://www.w3.org/2000/svg" xmlns:xlink="http://www.w3.org/1999/xlink" viewBox="0 0 60.22 74.47"><defs><style>.cls-1{fill:url(#radial-gradient);}.cls-2{fill:#29235c;opacity:0.3;isolation:isolate;}.cls-3{fill:#fff;}</style><radialGradient id="radial-gradient" cx="-304.77" cy="2319.94" r="46.85" gradientTransform="matrix(1, 0, 0, -1, 0, 74.94)" gradientUnits="userSpaceOnUse"><stop offset="0" stop-color="#ff6ef0"/><stop offset="0.29" stop-color="#fa69ee"/><stop offset="0.63" stop-color="#eb5ce7"/><stop offset="1" stop-color="#d447dc"/></radialGradient></defs><title>girls-only-background</title><g id="Layer_2" data-name="Layer 2"><polygon class="cls-1" points="0 60.27 0 0 60.22 0 60.22 60.27 30.06 74.47 0 60.27"/><path class="cls-2" d="M60.16,60.27V38.37L44.68,22.89l-0.39-.39L44,22.23h0A20.57,20.57,0,0,0,14.95,51.31h0l0.17,0.17,0.58,0.58L35.51,71.87Z"/><path class="cls-3" d="M29.94,16.69A20.57,20.57,0,1,0,50.51,37.26h0A20.57,20.57,0,0,0,29.94,16.69ZM19.18,51.86V47.35c0-2.31,1.49-3.71,3.69-4.44a23.46,23.46,0,0,1,3.79-.9l0.18-.7a0.54,0.54,0,0,1,.52-0.54l0-.48C25.9,40.1,24,39.71,23.49,39,24,38.58,24,36,24,34.3a15.72,15.72,0,0,1,.28-3.59,3.22,3.22,0,0,1,.15-0.58c0.68-2.91,2.5-4.59,5.54-4.59,1.67,0,3.68.27,3.89,1.46,0.78,0.16,1.37,1.53,1.68,3.2a16.39,16.39,0,0,1,.34,1.8,8.64,8.64,0,0,1,.06,1.73v0.67c-0.06,1.67-.05,4.21.49,4.65-0.53.68-2.42,1.07-3.9,1.26l0,0.49a0.54,0.54,0,0,1,.45.53L33.15,42a23.51,23.51,0,0,1,3.81.9c2.2,0.73,3.7,2.12,3.7,4.44v4.55a17.88,17.88,0,0,1-21.47,0h0Zm24.91-3.34v0h0Z"/></g></svg>