<svg id="Layer_1" data-name="Layer 1" xmlns="http://www.w3.org/2000/svg" xmlns:xlink="http://www.w3.org/1999/xlink" viewBox="0 0 2902.35 212.41"><defs><style>.cls-1{fill:#2baa4a;}.cls-2{fill:#2b3990;}.cls-3{clip-path:url(#clip-path);}.cls-4{fill:#383838;}</style><clipPath id="clip-path"><path id="SVGID" class="cls-1" d="M959,3.49h116.13q37.9,0,56.8,16.39c12.58,10.9,18.9,26.48,18.9,46.6q0,31.12-20.58,48.61t-62.85,17.49h-38.22V91H959V3.49Zm70.17,129.1H959v76.19h70.17V132.59Zm0-41.59h17.11c13.47,0,22.9-2.1,28.37-6.36s8.16-9.7,8.16-16.3A21.64,21.64,0,0,0,1075.67,52q-7-6.74-26.64-6.74h-19.9V91ZM1168.37,3.49h69.9V158.21h109v50.57H1168.37V3.49Zm333.85,0H1572V125.9a94.79,94.79,0,0,1-6.26,34.37,73.81,73.81,0,0,1-19.59,28.3c-8.89,8.08-18.21,13.72-28,17-13.59,4.54-29.85,6.83-48.9,6.83a329.53,329.53,0,0,1-36-2.1q-19.51-2.08-32.59-8.32a81.24,81.24,0,0,1-24-17.73q-10.9-11.47-14.9-23.66-6.47-19.57-6.48-34.7V3.49H1425V128.81q0,16.85,10.21,26.24t28.48,9.46c12,0,21.48-3.11,28.32-9.32s10.21-15,10.21-26.38V3.49Zm81.7,137.37,66.49-3.78q2.13,14.7,8.79,22.42c7.16,8.32,17.48,12.43,30.85,12.43q14.92,0,23.06-6.35t8.05-14.77c0-5.3-2.53-10.08-7.68-14.29s-17.06-8.18-35.8-11.9q-46-9.39-65.54-24.9-19.74-15.56-19.74-39.63,0-15.84,10.11-29.92T1632.88,8q20.29-8,55.59-8,43.35,0,66.12,14.63t27.05,46.56l-65.85,3.49q-2.61-13.84-11.06-20.17t-23.16-6.26c-8.16,0-14.27,1.53-18.37,4.68S1657,49.85,1657,54.35c0,3.25,1.68,6.16,5.05,8.79s11.11,5.21,23.48,7.55q45.79,9,65.59,18.16C1764.38,95,1774,102.53,1780,111.61a53.75,53.75,0,0,1,9.06,30.4A60.9,60.9,0,0,1,1777,178.38q-12,16.7-33.64,25.28t-54.43,8.6q-57.64,0-79.86-20.17t-25.16-51.24Z"/></clipPath></defs><title>camps_logo</title><path id="SVGID-2" data-name="SVGID" class="cls-2" d="M0,4.11H91.91L127.39,129,162.71,4.11h91.6V209.4H197.25V52.86L153,209.4H101.33L57.22,52.86V209.4H0V4.11Zm425.34,171.4H345.75l-11,33.89H263.42l85-205.29h76.17l85,205.29H436.45l-11.11-33.89Zm-14.63-44.4-25-73.8-24.85,73.8Zm52-127H675.07V54.82H603.8V209.4H533.94V54.82H462.72V4.11Zm228.46,0H761V91.62h76.38v41.59h70.17V209.4H837.41V133.21H761V209.4H691.18V4.11ZM837.41,91.62h70.17V4.11H837.41V91.62Z"/><path id="SVGID-3" data-name="SVGID" class="cls-1" d="M959,3.49h116.13q37.9,0,56.8,16.39c12.58,10.9,18.9,26.48,18.9,46.6q0,31.12-20.58,48.61t-62.85,17.49h-38.22V91H959V3.49Zm70.17,129.1H959v76.19h70.17V132.59Zm0-41.59h17.11c13.47,0,22.9-2.1,28.37-6.36s8.16-9.7,8.16-16.3A21.64,21.64,0,0,0,1075.67,52q-7-6.74-26.64-6.74h-19.9V91ZM1168.37,3.49h69.9V158.21h109v50.57H1168.37V3.49Zm333.85,0H1572V125.9a94.79,94.79,0,0,1-6.26,34.37,73.81,73.81,0,0,1-19.59,28.3c-8.89,8.08-18.21,13.72-28,17-13.59,4.54-29.85,6.83-48.9,6.83a329.53,329.53,0,0,1-36-2.1q-19.51-2.08-32.59-8.32a81.24,81.24,0,0,1-24-17.73q-10.9-11.47-14.9-23.66-6.47-19.57-6.48-34.7V3.49H1425V128.81q0,16.85,10.21,26.24t28.48,9.46c12,0,21.48-3.11,28.32-9.32s10.21-15,10.21-26.38V3.49Zm81.7,137.37,66.49-3.78q2.13,14.7,8.79,22.42c7.16,8.32,17.48,12.43,30.85,12.43q14.92,0,23.06-6.35t8.05-14.77c0-5.3-2.53-10.08-7.68-14.29s-17.06-8.18-35.8-11.9q-46-9.39-65.54-24.9-19.74-15.56-19.74-39.63,0-15.84,10.11-29.92T1632.88,8q20.29-8,55.59-8,43.35,0,66.12,14.63t27.05,46.56l-65.85,3.49q-2.61-13.84-11.06-20.17t-23.16-6.26c-8.16,0-14.27,1.53-18.37,4.68S1657,49.85,1657,54.35c0,3.25,1.68,6.16,5.05,8.79s11.11,5.21,23.48,7.55q45.79,9,65.59,18.16C1764.38,95,1774,102.53,1780,111.61a53.75,53.75,0,0,1,9.06,30.4A60.9,60.9,0,0,1,1777,178.38q-12,16.7-33.64,25.28t-54.43,8.6q-57.64,0-79.86-20.17t-25.16-51.24Z"/><g class="cls-3"><rect id="SVGID-4" data-name="SVGID" class="cls-1" x="958.96" width="830.1" height="212.41"/></g><path class="cls-4" d="M2039.26,38.2,2003.95,80c-12.95-16.48-32.08-27.37-49.14-27.37-28,0-49.14,22.66-49.14,53s21.19,53.26,49.14,53.26c15.89,0,35-9.42,49.14-23.84l35.31,37.67c-22.37,24.13-56.21,39.73-87.4,39.73-62.68,0-108.88-45.32-108.88-106.23,0-60,47.08-104.47,110.94-104.47C1985.11,1.71,2018.37,15.83,2039.26,38.2Z"/><path class="cls-4" d="M2110.77,176.8l-12.36,33h-63l88-206.29h63l85,206.29h-65.33l-12.07-33Zm42.38-112.12-25.31,67.39h50Z"/><path class="cls-4" d="M2463.61,209.76l-.29-122.13-41.49,101.82h-40L2340.31,87.64V209.76h-53.85V3.47h65.62l49.73,114.18L2451.55,3.47h65.62V209.76Z"/><path class="cls-4" d="M2633.7,3.47c53.26,0,83.87,26.48,83.87,73.28,0,49.14-30.61,77.4-83.87,77.4h-32.37v55.62h-61.21V3.47Zm-32.37,103.59h29.43c18.25,0,28.84-10,28.84-28.55,0-18-10.59-28-28.84-28h-29.43Z"/><path class="cls-4" d="M2900.32,24.66l-22.66,47.08c-21.19-12.07-51.2-23-68.57-23-10.3,0-17.07,3.53-17.07,11.18,0,30.31,107.71,12.36,107.71,86.81,0,43.85-38.85,64.74-85,64.74-35,0-73.28-12.36-99.17-32.67l23-46.5c21.19,18,55.62,31.49,76.81,31.49,12.95,0,21.19-4.41,21.19-13.83,0-31.19-107.71-11.48-107.71-84.16,0-39.73,33.84-65,85.34-65C2845.59.82,2878,10.24,2900.32,24.66Z"/></svg>