<svg xmlns="http://www.w3.org/2000/svg" xmlns:xlink="http://www.w3.org/1999/xlink" viewBox="0 0 400 400"><defs><style>.cls-1{fill:#d8a99d;}.cls-2{fill:#f8b68d;}.cls-3{fill:#594036;}.cls-4{fill:#a76947;}.cls-5{fill:#dae5e9;}.cls-6{fill:#80999b;}.cls-7{fill:#af483a;}.cls-8{fill:url(#linear-gradient);}.cls-9{fill:#ba5745;}.cls-10{fill:#6e352f;}.cls-11{fill:#f58634;}.cls-12{fill:url(#linear-gradient-2);}.cls-13{fill:#e77c24;}.cls-14{fill:#f58f75;}.cls-15{fill:url(#linear-gradient-3);}.cls-16{fill:url(#linear-gradient-4);}.cls-17{fill:url(#linear-gradient-5);}.cls-18,.cls-20{opacity:0.11;}.cls-18{fill:url(#linear-gradient-6);}.cls-19,.cls-96{opacity:0.05;}.cls-19{fill:url(#linear-gradient-7);}.cls-20{fill:url(#linear-gradient-8);}.cls-21{fill:#9ca8a9;}.cls-22{fill:#b3bec0;}.cls-23{fill:#c2cfd2;}.cls-24,.cls-60{fill:#987068;}.cls-25{clip-path:url(#clip-path);}.cls-26,.cls-61{fill:#c68d82;}.cls-27{fill:#7f5b54;}.cls-28{clip-path:url(#clip-path-2);}.cls-29{fill:#b47c75;}.cls-30{fill:#f7b68d;}.cls-31,.cls-33{fill:#98372c;}.cls-32{clip-path:url(#clip-path-3);}.cls-33{opacity:0.6;}.cls-34{fill:url(#linear-gradient-9);}.cls-35{clip-path:url(#clip-path-4);}.cls-36,.cls-37{fill:#dc926b;}.cls-36,.cls-64{opacity:0.4;}.cls-38{fill:#edf6fc;}.cls-39{fill:#cc835c;}.cls-40{fill:#fde1d1;}.cls-41{fill:#232323;}.cls-42{fill:#bd5945;}.cls-43{clip-path:url(#clip-path-5);}.cls-44{clip-path:url(#clip-path-6);}.cls-45{fill:#4f211e;}.cls-45,.cls-56{opacity:0.3;}.cls-46{clip-path:url(#clip-path-7);}.cls-47{fill:#e86c25;}.cls-48{fill:#cb3827;}.cls-49{clip-path:url(#clip-path-8);}.cls-50{fill:#ed9c74;}.cls-51{fill:#fac2a4;}.cls-52{clip-path:url(#clip-path-9);}.cls-53{fill:#f79954;}.cls-54{fill:#f7b992;}.cls-55{clip-path:url(#clip-path-10);}.cls-56,.cls-57{fill:#db725a;}.cls-58{clip-path:url(#clip-path-11);}.cls-59{clip-path:url(#clip-path-12);}.cls-60,.cls-65,.cls-95{opacity:0.2;}.cls-61{opacity:0.7;}.cls-62,.cls-64{fill:#422e28;}.cls-63{clip-path:url(#clip-path-13);}.cls-65{fill:#2b1c18;}.cls-66{fill:#d67d50;}.cls-67{clip-path:url(#clip-path-14);}.cls-68,.cls-69{fill:#8e5237;}.cls-68{opacity:0.5;}.cls-70{fill:#bc7457;}.cls-71{fill:#92543b;}.cls-72{fill:#4c3b33;}.cls-73{fill:#4c311d;}.cls-74{fill:#67452e;}.cls-75{fill:#515c5c;}.cls-76{fill:#1a2021;}.cls-77{fill:#424e50;}.cls-78{fill:#232827;}.cls-79{fill:#a93624;}.cls-80{fill:#3f4849;}.cls-81{fill:#7d412f;}.cls-82,.cls-92{fill:none;}.cls-82,.cls-92,.cls-93{stroke:#20282a;}.cls-83{clip-path:url(#clip-path-15);}.cls-84{fill:#b9d1d6;}.cls-85,.cls-94,.cls-95{fill:#30393a;}.cls-86,.cls-93{fill:#c64c2d;}.cls-87{clip-path:url(#clip-path-16);}.cls-88{fill:#98babf;}.cls-89{fill:#20282a;}.cls-90{clip-path:url(#clip-path-17);}.cls-91{clip-path:url(#clip-path-18);}.cls-92,.cls-93{stroke-miterlimit:10;}.cls-94{opacity:0.1;}.cls-96{fill:url(#linear-gradient-12);}</style><linearGradient id="linear-gradient" x1="83.93" y1="32.9" x2="148.42" y2="344.07" gradientUnits="userSpaceOnUse"><stop offset="0" stop-color="#f5c9a8"/><stop offset="1" stop-color="#f7a276"/></linearGradient><linearGradient id="linear-gradient-2" x1="167.67" y1="12.47" x2="231.25" y2="319.3" xlink:href="#linear-gradient"/><linearGradient id="linear-gradient-3" x1="127.95" y1="194.76" x2="23.14" y2="160.94" gradientTransform="translate(56.13 -17.85) rotate(16.71)" gradientUnits="userSpaceOnUse"><stop offset="0" stop-color="#32a849"/><stop offset="1" stop-color="#92bd4b"/></linearGradient><linearGradient id="linear-gradient-4" x1="804.02" y1="1805.1" x2="783.34" y2="1523.71" gradientTransform="translate(-499.45 -1491.31)" gradientUnits="userSpaceOnUse"><stop offset="0" stop-color="#f26b32"/><stop offset="1" stop-color="#ffc733"/></linearGradient><linearGradient id="linear-gradient-5" x1="601.68" y1="1720.26" x2="780.05" y2="1559.39" gradientTransform="translate(-945.83 -1192.53) rotate(-16.71)" gradientUnits="userSpaceOnUse"><stop offset="0" stop-color="#204199"/><stop offset="1" stop-color="#009edb"/></linearGradient><linearGradient id="linear-gradient-6" x1="266.56" y1="315.34" x2="295.49" y2="267.64" gradientTransform="matrix(1, 0, 0, 1, 0, 0)" xlink:href="#linear-gradient-5"/><linearGradient id="linear-gradient-7" x1="140.4" y1="390.3" x2="239.84" y2="226.38" gradientTransform="matrix(1, 0, 0, 1, 0, 0)" xlink:href="#linear-gradient-5"/><linearGradient id="linear-gradient-8" x1="183.88" y1="313.81" x2="209.58" y2="271.45" gradientTransform="matrix(1, 0, 0, 1, 0, 0)" xlink:href="#linear-gradient-5"/><clipPath id="clip-path"><path id="_Clipping_Path_" data-name="&lt;Clipping Path&gt;" class="cls-1" d="M97.24,196.79s-17.82-2.51-31.45,5.31l6.72,66.6,13.23-7.12Z"/></clipPath><clipPath id="clip-path-2"><path id="_Clipping_Path_2" data-name="&lt;Clipping Path&gt;" class="cls-1" d="M126.39,266.32l-24.63-7.06L72.2,264.4l19.66,13.75c17.42-.32,34.53-11.35,34.53-11.35"/></clipPath><clipPath id="clip-path-3"><path id="_Clipping_Path_3" data-name="&lt;Clipping Path&gt;" class="cls-7" d="M107.13,212.11c-.25-9.87-10-27.9-26.37-1.86-6.52,10.37-5.95,38.51-5.95,38.51s5.34,8.12,23.95,5.36c10-1.48,13.42-4.61,13.42-4.61C107.05,228.88,107.61,230.9,107.13,212.11Z"/></clipPath><linearGradient id="linear-gradient-9" x1="551.16" y1="1433.05" x2="556.24" y2="1457.58" gradientTransform="translate(-794.92 -1063.88) rotate(-14.41)" xlink:href="#linear-gradient"/><clipPath id="clip-path-4"><path id="_Clipping_Path_4" data-name="&lt;Clipping Path&gt;" class="cls-8" d="M144.76,163.45a34.5,34.5,0,0,1-34.5,34.5h0a34.5,34.5,0,0,1-34.5-34.5v-7a34.5,34.5,0,0,1,34.5-34.5h0a34.5,34.5,0,0,1,34.5,34.5Z"/></clipPath><clipPath id="clip-path-5"><path id="_Clipping_Path_5" data-name="&lt;Clipping Path&gt;" class="cls-9" d="M80.14,180.26S98.55,172.07,98,146.18c0,0,42.52-7.81,40.72-28.64s-24.8-13.31-24.8-13.31,3,6.89-7.39,9.69C95.88,116.8,57.38,130.16,80.14,180.26Z"/></clipPath><clipPath id="clip-path-6"><path id="_Clipping_Path_6" data-name="&lt;Clipping Path&gt;" class="cls-10" d="M140.06,263.67l-25.89-10.4a16.87,16.87,0,0,0-2.17-4.51s-22.18,9.65-37.18,0c0,0-1.27,9.08,4.06,15.3.28.88,2.2,2,3.94,3.42C94.21,276.56,110,279,110,279l5.67,32.12,6.57-1.53-4.08-34.94L106,267.3c.51-.2,1-.4,1.45-.62l23.86,1.58,7,31,6.42-1.58Z"/></clipPath><clipPath id="clip-path-7"><path id="_Clipping_Path_7" data-name="&lt;Clipping Path&gt;" class="cls-11" d="M200.54,95s3.83-17.72-10.85-17.14-14.25,26-14.25,26l8.17-.94s-.89-13.15,4.6-12.77c4.14.29,3.9,6.58,3.9,6.58Z"/></clipPath><clipPath id="clip-path-8"><ellipse id="_Clipping_Path_8" data-name="&lt;Clipping Path&gt;" class="cls-12" cx="193.42" cy="136.71" rx="33.65" ry="34.62"/></clipPath><clipPath id="clip-path-9"><path id="_Clipping_Path_9" data-name="&lt;Clipping Path&gt;" class="cls-13" d="M219.46,125.57c6.17,4.87,7.6,9.52,7.6,9.52s1.72-21.41-10.87-30.52c-9.26-6.71-15-3.62-15-3.62-46.07-10-44.37,35.11-39.22,48.17.36.91,6.53-12.36,7.74-17.83,1.25-5.64,2.58-10.87,8.07-12.73s-1.48,5.05-1.48,5.05l14.25-6.75c14.25-6.76,10.64-12.67,10.64-12.67,1.77,7.78,5.18,11.88,8.4,14.6C211.9,120.71,217.11,123.72,219.46,125.57Z"/></clipPath><clipPath id="clip-path-10"><path id="_Clipping_Path_10" data-name="&lt;Clipping Path&gt;" class="cls-14" d="M208.66,205.17s0,0-.27-4.92c-.44-8.19-1.57-19.68-4.54-22.67-3.79-3.82-11.39-5.25-17.67-1-4.13,2.77-5.84,16.08-6.53,24.87-.36,4.57-.27,4-.27,4s11.28-.6,15-.63C198,204.78,208.66,205.17,208.66,205.17Z"/></clipPath><clipPath id="clip-path-11"><path id="_Clipping_Path_11" data-name="&lt;Clipping Path&gt;" class="cls-2" d="M206.09,185.66s5.26,8.84,5,18.64S209,215.85,209,215.85l1.43.34s5-9.07,2.84-18.79-4.21-14.52-9.46-19.83Z"/></clipPath><clipPath id="clip-path-12"><polygon id="_Clipping_Path_12" data-name="&lt;Clipping Path&gt;" class="cls-1" points="280.62 219.3 308.54 224.07 304.17 264.17 279.85 258.85 280.62 219.3"/></clipPath><clipPath id="clip-path-13"><path id="_Clipping_Path_13" data-name="&lt;Clipping Path&gt;" class="cls-3" d="M289,207.91s6.43.69,9,12.38,1.32,40,1.32,40-13-.83-19.43-3.35l.36-16.37S277.12,205.61,289,207.91Z"/></clipPath><clipPath id="clip-path-14"><path id="_Clipping_Path_14" data-name="&lt;Clipping Path&gt;" class="cls-4" d="M333.3,164.08c1.19,12-4.72,22.52-13.85,29.78a46.23,46.23,0,0,1-5.83,3.94c-2.05,1.17-4.15,2.25-6.29,3.2a59.43,59.43,0,0,1-6.54,2.47c-24.1,8.4-57.52-7.43-52.24-36.87a42.84,42.84,0,0,1,1.36-8.26c5.07-18.9,23.37-34.42,44.15-34.43a39.85,39.85,0,0,1,7.36.34,31.49,31.49,0,0,1,19.33,10.12,37.32,37.32,0,0,1,9.72,14.94A37,37,0,0,1,333.3,164.08Z"/></clipPath><clipPath id="clip-path-15"><path id="_Clipping_Path_15" data-name="&lt;Clipping Path&gt;" class="cls-5" d="M209.1,196.42a4.28,4.28,0,0,1-4.28,4.28h0a4.28,4.28,0,0,1-4.28-4.28V183a4.27,4.27,0,0,1,4.28-4.28h0A4.27,4.27,0,0,1,209.1,183Z"/></clipPath><clipPath id="clip-path-16"><path id="_Clipping_Path_16" data-name="&lt;Clipping Path&gt;" class="cls-6" d="M226.56,198.22a3.11,3.11,0,0,1-3.11,3.11h-11.5a3.11,3.11,0,0,1-3.11-3.11h0a3.11,3.11,0,0,1,3.11-3.11h11.5a3.11,3.11,0,0,1,3.11,3.11Z"/></clipPath><clipPath id="clip-path-17"><path id="_Clipping_Path_17" data-name="&lt;Clipping Path&gt;" class="cls-5" d="M191.06,205.66a4.28,4.28,0,0,1-4.28,4.28h0a4.28,4.28,0,0,1-4.28-4.28V192.22a4.27,4.27,0,0,1,4.28-4.28h0a4.27,4.27,0,0,1,4.28,4.28Z"/></clipPath><clipPath id="clip-path-18"><path id="_Clipping_Path_18" data-name="&lt;Clipping Path&gt;" class="cls-6" d="M208.51,207.46a3.11,3.11,0,0,1-3.11,3.11H193.9a3.11,3.11,0,0,1-3.11-3.11h0a3.11,3.11,0,0,1,3.11-3.11h11.5a3.11,3.11,0,0,1,3.11,3.11Z"/></clipPath><linearGradient id="linear-gradient-12" x1="86.19" y1="326.38" x2="120.62" y2="269.62" gradientTransform="matrix(1, 0, 0, 1, 0, 0)" xlink:href="#linear-gradient-5"/></defs><title>main_background_mobile</title><g id="Layer_14" data-name="Layer 14"><circle class="cls-15" cx="88.84" cy="182.14" r="57.21" transform="translate(-48.62 33.24) rotate(-16.71)"/><circle class="cls-16" cx="294.5" cy="177.69" r="73.86" transform="translate(-38.66 92.18) rotate(-16.71)"/><path class="cls-17" d="M286.3,142.54A97.74,97.74,0,1,1,164.59,77,97.73,97.73,0,0,1,286.3,142.54Z"/><ellipse class="cls-18" cx="282.27" cy="289.44" rx="36.96" ry="14.22"/><ellipse class="cls-19" cx="194.39" cy="301.3" rx="144.22" ry="25.82"/><ellipse class="cls-20" cx="197.84" cy="290.81" rx="35.69" ry="9.33"/><path class="cls-21" d="M218.19,287.29c-3.5-2.76-11.93-4.7-21.78-4.7s-18.28,1.95-21.79,4.7h-1.74v2.85c0,4.17,10.53,7.55,23.53,7.55s23.53-3.38,23.53-7.55v-2.85Z"/><ellipse class="cls-22" cx="196.4" cy="287.28" rx="23.53" ry="7.55"/><path class="cls-23" d="M207.19,225.74,196.4,229l-10.79-3.29a64,64,0,0,1,6.07,41.48c-4.42,22.39-3.82,19.38,4.2,20v.07l.52,0,.52,0v-.07c8-.61,8.62,2.4,4.2-20A64,64,0,0,1,207.19,225.74Z"/><path class="cls-23" d="M266.8,227.31c-8.73-9.84-36.93-17-70.39-17s-61.66,7.2-70.4,17h-2.81v7h0c.9,12.72,33.3,22.94,73.17,22.94,40.43,0,73.21-10.52,73.21-23.49v-6.45Z"/><ellipse class="cls-5" cx="195.64" cy="228.29" rx="73.21" ry="23.49"/><polyline class="cls-24" points="65.78 202.11 62.54 205.35 69.56 267.83 72.5 268.7 65.84 202.62"/><path id="_Clipping_Path_19" data-name="&lt;Clipping Path&gt;" class="cls-1" d="M97.24,196.79s-17.82-2.51-31.45,5.31l6.72,66.6,13.23-7.12Z"/><g class="cls-25"><path class="cls-26" d="M94.79,190.36s-17,4.82-20,23.54-2.31,47.29,0,50.05,27.7-5.73,29.8-12.75-2.44-54.72-9.81-60.84"/></g><path class="cls-27" d="M92.86,278.21l-2.78,31.23s1.45,2.67,3.91,1.34l2-31.94-3.11-.63"/><path class="cls-27" d="M74.6,266.23l-2.1,25.32s1.19,2.15,3.18,1l1.43-25.88-2.51-.48"/><path class="cls-27" d="M118,267.43l7.67,29.76s2.18,1.6,4-1l-8.64-30-3,1.2"/><path class="cls-24" d="M72.2,267.81v-3.4l20.06,13.74L127.05,267l1.09,2.77S110,282,92.45,281.48Z"/><path id="_Clipping_Path_20" data-name="&lt;Clipping Path&gt;" class="cls-1" d="M126.39,266.32l-24.63-7.06L72.2,264.4l19.66,13.75c17.42-.32,34.53-11.35,34.53-11.35"/><g class="cls-28"><path class="cls-29" d="M123.78,269.76,104.91,268l.94,9.37-7.41,1.45s-12.35-6.41-17.8-10.11-6-5.1-6-5.1l7.72-1.43,45.83,2.23"/></g><path class="cls-30" d="M105.9,215.75s14.58,13.15,37.43,9.23v-2.16S114,221.71,105.9,206.68Z"/><path class="cls-31" d="M105.9,205.85s4.71,4.48,8.23,7.1c0,0-2.54,4.41-1.95,9,0,0-5.56-3.27-7.07-4.38S105.9,205.85,105.9,205.85Z"/><path id="_Clipping_Path_21" data-name="&lt;Clipping Path&gt;" class="cls-7" d="M107.13,212.11c-.25-9.87-10-27.9-26.37-1.86-6.52,10.37-5.95,38.51-5.95,38.51s5.34,8.12,23.95,5.36c10-1.48,13.42-4.61,13.42-4.61C107.05,228.88,107.61,230.9,107.13,212.11Z"/><g class="cls-32"><path class="cls-33" d="M95.28,199.57s-17.87,11.35-5.2,61.72c6,23.76-23.88,5.22-26.56-8.62s10.39-59,20.39-60.86,16.48-5.23,16.26-1.27S97.24,199,97.24,199"/></g><path class="cls-34" d="M97.29,186s-6.14,25.14,2.76,25.23-1.21-2.07,4.65-20.15C107.73,181.72,97.29,186,97.29,186Z"/><path class="cls-9" d="M134.49,126.16s16,9.78,9.74,37.29S125.54,131,128.49,126.16,134.49,126.16,134.49,126.16Z"/><path id="_Clipping_Path_22" data-name="&lt;Clipping Path&gt;" class="cls-8" d="M144.76,163.45a34.5,34.5,0,0,1-34.5,34.5h0a34.5,34.5,0,0,1-34.5-34.5v-7a34.5,34.5,0,0,1,34.5-34.5h0a34.5,34.5,0,0,1,34.5,34.5Z"/><g class="cls-35"><path class="cls-36" d="M133.44,192.63s-36.72,10-55.07-15.5-4.27,21.4,5.6,25.76,48.06,2.09,49.46-1S133.44,192.63,133.44,192.63Z"/></g><ellipse class="cls-37" cx="114.13" cy="164.26" rx="7.83" ry="7.75"/><ellipse class="cls-37" cx="137.43" cy="160.9" rx="6.74" ry="7.75"/><ellipse class="cls-38" cx="136.86" cy="160.9" rx="6.48" ry="7.1"/><path class="cls-39" d="M130.38,168a6.47,6.47,0,0,1,1.53.37,5.37,5.37,0,0,1,1.45.8,2.5,2.5,0,0,1,.71.82,1.42,1.42,0,0,1,0,1.44,2.3,2.3,0,0,1-.93.75,3,3,0,0,1-.45.18l-.5.13a3.93,3.93,0,0,1-1.71-.05,3.41,3.41,0,0,1-1.42-.73,6,6,0,0,0,1.49.05,5.14,5.14,0,0,0,1.37-.29l.33-.13.35-.19a1.15,1.15,0,0,0,.45-.38c0-.09.07-.1,0-.27a2.14,2.14,0,0,0-.38-.54,12.67,12.67,0,0,0-1.08-1Z"/><path class="cls-40" d="M129.56,167.61s5.25,2.22,3,2.78S129.56,167.61,129.56,167.61Z"/><ellipse class="cls-41" cx="136.86" cy="164.94" rx="2.4" ry="1.82" transform="translate(-45.4 277.71) rotate(-82.06)"/><path class="cls-42" d="M110.26,152.46a.81.81,0,0,1-.55-1.4,11.39,11.39,0,0,1,7.81-3.08.81.81,0,1,1,0,1.62,9.8,9.8,0,0,0-6.71,2.64A.81.81,0,0,1,110.26,152.46Z"/><path class="cls-42" d="M140.06,150.43a.81.81,0,0,1-.43-.13,9.81,9.81,0,0,0-7.08-1.36.81.81,0,0,1-.3-1.59,11.38,11.38,0,0,1,8.24,1.59.81.81,0,0,1-.43,1.49Z"/><ellipse class="cls-38" cx="115.51" cy="164.26" rx="7.83" ry="7.75"/><ellipse class="cls-41" cx="118.83" cy="167.07" rx="2.11" ry="2.41"/><path class="cls-9" d="M132.83,182.14a8.91,8.91,0,0,1-4.86-.9c-2.25-1.24-4.3,1.93-1.15,2.55S132.83,182.14,132.83,182.14Z"/><path id="_Clipping_Path_23" data-name="&lt;Clipping Path&gt;" class="cls-9" d="M80.14,180.26S98.55,172.07,98,146.18c0,0,42.52-7.81,40.72-28.64s-24.8-13.31-24.8-13.31,3,6.89-7.39,9.69C95.88,116.8,57.38,130.16,80.14,180.26Z"/><g class="cls-43"><path class="cls-7" d="M98,146.18s2.55-9.39,1-8.46-6.25,2.85-5.23-.06-.07-7-2.26-4-7.8,3.43-5-3,9.12-11.86,3-10.46-17.83,5.62-18.77,17.95-8.9,44.8-1.25,49.32,21.54.67,25.44-9.5S98,146.18,98,146.18Z"/><path class="cls-7" d="M112.67,106.52s13.82-2.29,10.66,6-8.65,10.34-8.65,10.34,8.79,0,12.27-5.13,6.12-2.11,3.43.82a50.79,50.79,0,0,1-4.34,4.3s16.84-9.61,9.79-19.22-23.89-3-24.71,0S112.67,106.52,112.67,106.52Z"/></g><path class="cls-30" d="M101.76,167.61a6.22,6.22,0,0,1-6.22,6.22H91.92a6.22,6.22,0,0,1-6.22-6.22h0a6.22,6.22,0,0,1,6.22-6.22h3.61a6.22,6.22,0,0,1,6.22,6.22Z"/><path class="cls-37" d="M95.84,165.28l-6,4.29S87.17,161.46,95.84,165.28Z"/><path class="cls-30" d="M91.36,217s2.85,20.9,34.34,20c0,0,13.13-.81,20.89-3.23l1.24,2.24s-11.7,9.48-34.89,5.34-29-17.85-29-17.85S82.92,216.29,91.36,217Z"/><path class="cls-31" d="M91.52,213.9s.34,6.6,4.45,11.24a42.47,42.47,0,0,1-7.29,6.9s-5.79-6-7-13.08C81.71,219,84.73,204,91.52,213.9Z"/><polygon class="cls-2" points="143.46 297.27 144.07 302.33 141.44 302.84 139.41 296.63 143.46 297.27"/><polygon class="cls-2" points="120.59 307.11 121.18 312.12 118.57 312.72 116.54 306.47 120.59 307.11"/><path class="cls-10" d="M143.95,301.3s.68,1.37,3.94,3.07,4.07,2.58,1.83,3.39-4.82,1-6.85-2c0,0-1.9.08-2-.95a16.24,16.24,0,0,1,.2-3.2S143.06,302,143.95,301.3Z"/><path class="cls-10" d="M121.11,311s.68,1.37,3.94,3.07,4.07,2.57,1.83,3.39-4.82.95-6.85-2c0,0-1.9.08-2-.94a16.15,16.15,0,0,1,.2-3.2S120.23,311.69,121.11,311Z"/><path id="_Clipping_Path_24" data-name="&lt;Clipping Path&gt;" class="cls-10" d="M140.06,263.67l-25.89-10.4a16.87,16.87,0,0,0-2.17-4.51s-22.18,9.65-37.18,0c0,0-1.27,9.08,4.06,15.3.28.88,2.2,2,3.94,3.42C94.21,276.56,110,279,110,279l5.67,32.12,6.57-1.53-4.08-34.94L106,267.3c.51-.2,1-.4,1.45-.62l23.86,1.58,7,31,6.42-1.58Z"/><g class="cls-44"><path class="cls-45" d="M88.18,252.94s1,5.78,9.71,12.71c10.35,8.23,15.68,9.89,15.68,11.51s4.63,34.16,4.63,34.16l-6,1.41S77.66,271,74.69,264s-3.14-16.1-2.5-17.18,5.19-3.24,5.6-3S88.18,252.94,88.18,252.94Z"/><path class="cls-45" d="M107.58,268.24s-11.67-7.83-4.81-7.28,10.17,3,21,3.23,10.44,2.84,10.71,5.28,6.3,30.27,6.3,30.27l-4,1.56-12.16-29.4Z"/></g><path class="cls-30" d="M145.74,234s0,3,2.09,2.27,4.94,1.52,6.86,1.52-.23-.39-1-1.46,3.6.11,4.22-1-4.06-.23-3.89-.85,5.13-1.64,4.62-2.14-4.4,1-5.41.67,3.22-1.8,3.44-2.65-4.8,1.75-6,1.75-.05-.62.34-1.86-1.75-.51-2.26.51a7.37,7.37,0,0,1-1.2,1.71A7.89,7.89,0,0,1,145.74,234Z"/><path class="cls-30" d="M142.56,225.11s2.6.63,3.68.19,1.32-.88,0-.84-2.18-.32-1.39-.64,3.11-1,4.58-.52,2.2-.32.6-.84-3.43.16-3.63,0,2.71-1.45,4.84-.16c2.33,1.42,1.66-.59-.91-1.16a7,7,0,0,0-3.81.37s2.87-1.67,5-.5,1.56-.1.74-.42a5.13,5.13,0,0,0-5.21,0c-2.48,1.48-2.69,2.34-4.67,2.17"/><path id="_Clipping_Path_25" data-name="&lt;Clipping Path&gt;" class="cls-11" d="M200.54,95s3.83-17.72-10.85-17.14-14.25,26-14.25,26l8.17-.94s-.89-13.15,4.6-12.77c4.14.29,3.9,6.58,3.9,6.58Z"/><g class="cls-46"><path class="cls-47" d="M195.57,96.94s-.07-12.74-8.07-10.37S180.38,101,180.38,101s11.73-.22,11.93,0S195.57,96.94,195.57,96.94Z"/></g><path class="cls-48" d="M206.29,100.31s-1.13-7.71-8.93-5.92-7.3,6.28-7,6.36S204.16,104.13,206.29,100.31Z"/><ellipse id="_Clipping_Path_26" data-name="&lt;Clipping Path&gt;" class="cls-12" cx="193.42" cy="136.71" rx="33.65" ry="34.62"/><g class="cls-49"><path class="cls-50" d="M161.44,135.78s1.75,36.64,46.07,39.71-42.58,12.73-48.05,0-5.7-29-5.26-30.86S161.44,135.78,161.44,135.78Z"/><path class="cls-51" d="M228.47,129s-4,36.62-35.17,44.51,10.48,16.25,19.48,3S233.4,142.24,233,139.67,228.47,129,228.47,129Z"/></g><path class="cls-37" d="M188,138.46c.81,4.47-1,8.62-4,9.29s-6.11-2.41-6.93-6.88,1-8.63,4-9.29S187.15,134,188,138.46Z"/><path class="cls-38" d="M188.9,138.26c.81,4.46-1,8.62-4,9.29s-6.11-2.41-6.92-6.88,1-8.63,4-9.29S188.09,133.79,188.9,138.26Z"/><path class="cls-41" d="M186.27,143c.37,2-.32,3.84-1.53,4.11s-2.49-1.13-2.85-3.14.32-3.84,1.53-4.11S185.9,141,186.27,143Z"/><path class="cls-37" d="M205.1,138.46c-.81,4.47,1,8.62,4,9.29s6.1-2.41,6.92-6.88-1-8.63-4-9.29S205.92,134,205.1,138.46Z"/><path class="cls-38" d="M204.17,138.26c-.81,4.46,1,8.62,4,9.29s6.11-2.41,6.92-6.88-1-8.63-4-9.29S205,133.79,204.17,138.26Z"/><path class="cls-41" d="M206.47,143c-.37,2,.32,3.84,1.53,4.11s2.49-1.13,2.86-3.14-.32-3.84-1.53-4.11S206.83,141,206.47,143Z"/><path class="cls-40" d="M196.44,144.63a4.19,4.19,0,0,0,2.75,2.83c2.41,1,.94,2.34-1.54,1.27S196.44,144.63,196.44,144.63Z"/><path class="cls-37" d="M196.73,145.39a2.42,2.42,0,0,0,.41.55,3.2,3.2,0,0,0,.59.46,8.07,8.07,0,0,0,.84.42,11,11,0,0,0,1.07.3l.6.11.35.07.33.07a1.6,1.6,0,0,1,1.34,1.47,2.23,2.23,0,0,1-1,1.73,4.64,4.64,0,0,1-3,.82,4.85,4.85,0,0,1-1.38-.33c-.39-.16-.74-.32-1.08-.47-1.33-.61-2.19-1.1-2.19-1.1s1,.13,2.37.43l1.13.27a6.07,6.07,0,0,0,1.17.13,4.32,4.32,0,0,0,2.35-.76c.34-.21.61-.6.58-.72s-.14-.3-.52-.43l-1.24-.42a6.92,6.92,0,0,1-1.12-.54,4.52,4.52,0,0,1-.82-.69,3.45,3.45,0,0,1-.51-.67A1.87,1.87,0,0,1,196.73,145.39Z"/><path class="cls-13" d="M178.43,129.48a.6.6,0,0,1-.53-.31.61.61,0,0,1,.23-.83,12.12,12.12,0,0,1,7.06-1.49.61.61,0,0,1,.54.67.6.6,0,0,1-.66.54,10.9,10.9,0,0,0-6.34,1.34A.61.61,0,0,1,178.43,129.48Z"/><path class="cls-13" d="M214.29,129.23a.63.63,0,0,1-.33-.06,10.89,10.89,0,0,0-3.53-1,11.17,11.17,0,0,0-2.9.08.57.57,0,0,1-.7-.49.61.61,0,0,1,.5-.7,11.89,11.89,0,0,1,3.23-.09,12.14,12.14,0,0,1,3.93,1.1.61.61,0,0,1-.2,1.15Z"/><path class="cls-9" d="M202.48,154.91s-2.53,2.41-7.57,1.07-5.9.24-5.44.85,5,4.17,9.31,1.63S202.48,154.91,202.48,154.91Z"/><path id="_Clipping_Path_27" data-name="&lt;Clipping Path&gt;" class="cls-13" d="M219.46,125.57c6.17,4.87,7.6,9.52,7.6,9.52s1.72-21.41-10.87-30.52c-9.26-6.71-15-3.62-15-3.62-46.07-10-44.37,35.11-39.22,48.17.36.91,6.53-12.36,7.74-17.83,1.25-5.64,2.58-10.87,8.07-12.73s-1.48,5.05-1.48,5.05l14.25-6.75c14.25-6.76,10.64-12.67,10.64-12.67,1.77,7.78,5.18,11.88,8.4,14.6C211.9,120.71,217.11,123.72,219.46,125.57Z"/><g class="cls-52"><path class="cls-47" d="M190.19,99.51s-16.83,4.3-22.8,15.32-2.3,27.93-7.34,37.6-9.9,10.75-9.85,2.1,1.54-47.44,12.6-53.32S190.19,99.51,190.19,99.51Z"/><path class="cls-53" d="M209.62,100.14s9.64,7.47,12,15.93c2.17,7.77,8.35,16.2,9.12,19.41s-4.13-31.21-13.16-35.34S209.62,100.14,209.62,100.14Z"/></g><path class="cls-53" d="M199,91.16s1.63-12.3-8.45-12S181,86.42,181,86.42s5.19-6.89,10.3-4.81,5.18,9.63,5.55,7-.15-4.45.37-2.59S199.12,89.61,199,91.16Z"/><path class="cls-54" d="M232.28,139.78a4.5,4.5,0,0,1-4.5,4.5h-1.62a4.5,4.5,0,0,1-4.5-4.5h0a4.5,4.5,0,0,1,4.5-4.5h1.62a4.5,4.5,0,0,1,4.5,4.5Z"/><path class="cls-54" d="M174.2,139.78a4.5,4.5,0,0,1-4.5,4.5h-7.14a4.5,4.5,0,0,1-4.5-4.5h0a4.5,4.5,0,0,1,4.5-4.5h7.14a4.5,4.5,0,0,1,4.5,4.5Z"/><path class="cls-53" d="M184.24,118.19s8.29-3.82,13.62-10.06l-6.81,3.76,2.83-3.76S189.06,110.4,184.24,118.19Z"/><path id="_Clipping_Path_28" data-name="&lt;Clipping Path&gt;" class="cls-14" d="M208.66,205.17s0,0-.27-4.92c-.44-8.19-1.57-19.68-4.54-22.67-3.79-3.82-11.39-5.25-17.67-1-4.13,2.77-5.84,16.08-6.53,24.87-.36,4.57-.27,4-.27,4s11.28-.6,15-.63C198,204.78,208.66,205.17,208.66,205.17Z"/><g class="cls-55"><path class="cls-56" d="M207.73,207s-9-4.12-17.81-5.11-2.86-24.13-4.18-25.71-16.51-2.83-17.39,2-4.59,35.09,7.89,34.31S207,210,207,210Z"/><polygon class="cls-57" points="195.06 180.96 210.18 182.59 208.29 177.94 197.04 176.46 195.06 180.96"/></g><path class="cls-2" d="M199.07,176.95a4,4,0,0,1-4,4h0a4,4,0,0,1-4-4s1.4-.79,1.4-3.86-1.4-4.23-1.4-4.23a4,4,0,0,1,4-4h0a4,4,0,0,1,4,4,5.54,5.54,0,0,0-1.72,4.15C197.35,176.41,199.07,176.95,199.07,176.95Z"/><path id="_Clipping_Path_29" data-name="&lt;Clipping Path&gt;" class="cls-2" d="M206.09,185.66s5.26,8.84,5,18.64S209,215.85,209,215.85l1.43.34s5-9.07,2.84-18.79-4.21-14.52-9.46-19.83Z"/><g class="cls-58"><polygon class="cls-50" points="195.06 180.96 210.18 182.59 208.29 177.94 197.04 176.46 195.06 180.96"/></g><path class="cls-2" d="M182.52,184.95s-4.41,9.55-4.17,19.35,2.07,11.55,2.07,11.55l-1.44.34s-5-9.07-2.83-18.79,3.15-13.75,8.39-19.06Z"/><path class="cls-2" d="M209.68,214.68l1.42.14a10.37,10.37,0,0,0-.12,3.49c.28,1.8.84,2.72-.38,3.73s.36-2,0-2.41-1,2.92-1.87,3.27.79-2.59.58-3.27-2,3.78-3,4.06.89-2.3,1.17-3.38-.93,1-2.14,1.73.06-1.15,1-2.38.53-1.73-1-1.44-1.81-.29,0-1,3.5-1.57,3.5-1.57S209.38,215.54,209.68,214.68Z"/><path class="cls-2" d="M179.81,214.66l-1.42.14a10.34,10.34,0,0,1,.12,3.49c-.28,1.8-.84,2.72.38,3.73s-.36-2,0-2.41,1,2.92,1.87,3.27-.79-2.59-.58-3.27,2,3.78,3,4.07-.89-2.3-1.17-3.38.93,1,2.14,1.73-.06-1.15-1-2.38-.53-1.73,1-1.44,1.81-.28,0-1-3.5-1.57-3.5-1.57S180.1,215.53,179.81,214.66Z"/><polygon class="cls-27" points="303.29 263.69 308.65 282.58 307.48 283.67 306 282.87 302.63 265.52 303.29 263.69"/><polygon class="cls-27" points="295.02 270.82 297.46 294.14 295.77 295.43 293.91 294.19 293.91 273.15 295.02 270.82"/><polygon class="cls-27" points="276.24 265.98 275.79 289.42 273.95 290.5 272.25 289.03 274.85 268.16 276.24 265.98"/><polyline class="cls-24" points="270.25 265.99 270.25 268.65 294.49 275.22 306 265.99 306 262.76"/><polygon id="_Clipping_Path_30" data-name="&lt;Clipping Path&gt;" class="cls-1" points="270.25 265.99 294.49 271.6 306 262.76 282.37 256.98 270.25 265.99"/><polygon id="_Clipping_Path_31" data-name="&lt;Clipping Path&gt;" class="cls-1" points="280.62 219.3 308.54 224.07 304.17 264.17 279.85 258.85 280.62 219.3"/><g class="cls-59"><polygon class="cls-60" points="307.08 264.29 274.36 261.34 274.36 242.8 307.08 264.29"/><path class="cls-61" d="M299.56,220.67s5.23,26-.43,43.49-8.73-3.63-8.41-12.19,1.75-30.65,2.14-30.58S299.56,220.67,299.56,220.67Z"/></g><polygon class="cls-24" points="308.54 224.07 312.74 225.47 306.09 263.65 304.17 264.17 308.54 224.07"/><path class="cls-4" d="M283,211.13s-16.61,21.12-27.19,13.73S244,208.16,244,208.16l-2.28,1.76s5.3,20.41,20.63,20.14,18.17-8.38,18.17-8.38Z"/><polygon class="cls-62" points="283.64 210.12 275.58 218.76 277.46 228.99 280.57 224.99 283.64 210.12"/><path id="_Clipping_Path_32" data-name="&lt;Clipping Path&gt;" class="cls-3" d="M289,207.91s6.43.69,9,12.38,1.32,40,1.32,40-13-.83-19.43-3.35l.36-16.37S277.12,205.61,289,207.91Z"/><g class="cls-63"><path class="cls-64" d="M289.7,261.29s11.52.49,9.43-42c-1.45-29.4,10.27,42.66,5.68,43.09S289.7,261.29,289.7,261.29Z"/><polygon class="cls-65" points="288.21 219.3 301.91 215.63 300.7 209.57 290.13 211.58 288.21 219.3"/></g><path class="cls-4" d="M292,198.25s-3,9,0,15.93c0,0-.93,7-5.55,4.64s2-7.79-2-16.12Z"/><path class="cls-62" d="M299.13,260.33s-1.58,11.5-12.69,9.21S279.83,257,279.83,257Z"/><polyline class="cls-62" points="279.83 257.87 258.43 268.74 259.45 292.24 262.03 291.5 262.03 271.73 281.88 266.77"/><path class="cls-62" d="M288.22,262.39l-18.06,11.88L271.22,294l3,.2v-18s18.17-5.87,20.21-7.75"/><path class="cls-66" d="M259.39,291.08s-.56,3.09-3.19,3.89-3.08,3.08-1,3.19,7.64-1.71,7.75-2.62-.21-5.45-1.2-4.63A2.12,2.12,0,0,1,259.39,291.08Z"/><path class="cls-66" d="M271.21,293.76s.46,1-1.06,3.38-2.78,4.68-1.13,4.83,3.85-1.92,4.44-3.14A4.17,4.17,0,0,0,274,296c-.16-1-.31-2.2-.31-2.2Z"/><path id="_Clipping_Path_33" data-name="&lt;Clipping Path&gt;" class="cls-4" d="M333.3,164.08c1.19,12-4.72,22.52-13.85,29.78a46.23,46.23,0,0,1-5.83,3.94c-2.05,1.17-4.15,2.25-6.29,3.2a59.43,59.43,0,0,1-6.54,2.47c-24.1,8.4-57.52-7.43-52.24-36.87a42.84,42.84,0,0,1,1.36-8.26c5.07-18.9,23.37-34.42,44.15-34.43a39.85,39.85,0,0,1,7.36.34,31.49,31.49,0,0,1,19.33,10.12,37.32,37.32,0,0,1,9.72,14.94A37,37,0,0,1,333.3,164.08Z"/><g class="cls-67"><path class="cls-68" d="M323,188.3S298.82,207.44,266.21,204s-23.83,11,5,6.94,41.6-3.46,45.88-8.64,7.35-8.44,7.35-8.44Z"/><path class="cls-69" d="M306.37,180s0-.31-.11-.86c-.68-4.79.88-26.75-18-30.74-12.37-2.61-32.39,1.49-36-13.23s40.06-13.7,45.69-2.39,15.89,19.38,15,27.84"/><path class="cls-70" d="M262.88,137.54s-31.63,33.43,4.54,66.37-26.69,17.86-30-1.29-1.35-60,6.19-67.51S262.88,137.54,262.88,137.54Z"/></g><ellipse class="cls-69" cx="280.29" cy="174.48" rx="9.86" ry="7.79" transform="translate(42.33 403.34) rotate(-75.79)"/><ellipse class="cls-38" cx="279.15" cy="174.19" rx="9.86" ry="7.79" transform="translate(41.73 402) rotate(-75.78)"/><ellipse class="cls-69" cx="260.91" cy="165.5" rx="3.18" ry="7.76" transform="translate(-3.18 5.12) rotate(-1.12)"/><ellipse class="cls-38" cx="260.43" cy="165.5" rx="3.18" ry="7.76" transform="translate(-3.11 5) rotate(-1.09)"/><path class="cls-71" d="M265.63,172.24a11.61,11.61,0,0,1-1.67,1.89c-.29.25-.6.51-1,.78a4.7,4.7,0,0,1-1.19.75c-.41.2-1,.52-1.32.64s-.29.2-.32.36a1.14,1.14,0,0,0,.26.74,3.43,3.43,0,0,0,.76.76,4.85,4.85,0,0,0,1,.49l1.11.35c.71.22,1.29.45,1.69.61l.65.23s-.24.05-.7.11-1.06.06-1.8,0a11.13,11.13,0,0,1-1.23-.06,4.62,4.62,0,0,1-1.48-.44,4.07,4.07,0,0,1-1.34-1.08,2.8,2.8,0,0,1-.65-2,2.18,2.18,0,0,1,1.47-1.74l1.28-.46a5.87,5.87,0,0,0,1.15-.47c.36-.18.72-.34,1.05-.49C264.68,172.65,265.63,172.24,265.63,172.24Z"/><path class="cls-70" d="M266.21,171.77a15,15,0,0,1-3.75,2.84c-1.68.7-3.12,2.64-.28,2S266,172.93,266.21,171.77Z"/><ellipse class="cls-72" cx="275.12" cy="177.77" rx="2.39" ry="3.51"/><ellipse class="cls-72" cx="260.02" cy="169.26" rx="1.6" ry="3.51"/><path class="cls-73" d="M291.22,169.55a.87.87,0,0,1-.83-.58,13,13,0,0,0-8.65-8.3.88.88,0,1,1,.38-1.72,14.62,14.62,0,0,1,9.93,9.43.88.88,0,0,1-.53,1.12A.94.94,0,0,1,291.22,169.55Z"/><path class="cls-73" d="M256.68,155.31a.88.88,0,0,1-.33-1.7c5.32-2.15,8.12-.84,8.23-.78a.88.88,0,0,1-.76,1.59c-.07,0-2.34-1-6.81.82A.91.91,0,0,1,256.68,155.31Z"/><path class="cls-73" d="M253.61,124.63s5.71,20.24,22.42,17,32.46,10.6,31.29,23.26a165.89,165.89,0,0,0-1,18.53l7.15.12s.78-10.09,8.26-10.79-2.3,21.09-2.3,21.09S340,181.41,342,164.44s-6-28.43-15.1-27.32C326.88,137.11,324.18,94.76,253.61,124.63Z"/><path class="cls-41" d="M260.43,183s-.12,2.2,3.18,3.85,4.9,3.1,1.1,3S260.43,183,260.43,183Z"/><path class="cls-74" d="M258.43,126.06s41.61-16.7,56.31-2.19c15,14.79,5,21.18,5,21.18s-8.19-25.59-27.3-21.95C266.84,128,258.43,126.06,258.43,126.06Z"/><path class="cls-74" d="M327.84,142.69s12.48,1.73,11.43,17.12S330.6,180,330.6,180,343.08,155.15,327.84,142.69Z"/><path class="cls-4" d="M293.72,220.63s-6.28,12.26-20.46,15.06A216,216,0,0,1,246.14,239v2.2h25.73s8.73.2,15.57-5.54,7.9-8.43,7.9-8.43"/><path class="cls-62" d="M286.47,229.15l3.36,6.54,6.21-7.91s1.41-6.94-2.24-8.13Z"/><path class="cls-4" d="M242.19,211.54a5.3,5.3,0,0,0-3.91-1.65c-2.17.23-4.1-1.84-2.57-1.92s4.43.81,3.94-.33a11.38,11.38,0,0,0-3.3-3.68,2.85,2.85,0,0,0-1.17-.14c-1.44.27-1.28.31-1.77,2.31-.18.75-.83.38-.87-.43-.08-1.75.28-2.62,2.59-3.57,1.49-.61,1.3-.76,2.35-.17a3.84,3.84,0,0,0,1.61.6l4.09-1.09a6.61,6.61,0,0,1,1.1,2.87c.21,1.86-.31,4.17,0,5.1a10.19,10.19,0,0,1,.55,2.64Z"/><path class="cls-4" d="M234.93,202.15a8.13,8.13,0,0,0-3.62,1.13c-1.29,1-2.34.54-.91-.56s1.72-2.34,4.82-1.94,4.6.75,5.16,1.78-.84,1-1.92.44A12.85,12.85,0,0,0,234.93,202.15Z"/><path class="cls-4" d="M241.54,201.72a4.65,4.65,0,0,0-4.67-2c-3.31.4-4.11,1.41-4.11,1.41l6.83,1.31a2.78,2.78,0,0,0,1.47-.14Z"/><path class="cls-4" d="M243.18,201.47a4.59,4.59,0,0,0-4.7-1.75c-2.94.74.73,2.66,1.66,2.84S243.18,201.47,243.18,201.47Z"/><path class="cls-4" d="M244.33,239a18.33,18.33,0,0,1-3.08-.34c-2.31-.38-4.25.1-2.84.62s3.4.9,2.41.9-3.12-1.18-4.35-.82,1.51,1.59,3.22,1.94,1.47,1-.28.5-5-1.61-4.78-.5,7.42,1.49,5.72,1.82-4.12-1-4.45,0,3.81,1.33,5.78.95,3.63-2.81,5.81-2.68,0-2.36,0-2.36a4.65,4.65,0,0,0-2.89-1.1c-.4,0,.07.81.07.81S245.69,239.32,244.33,239Z"/><path class="cls-75" d="M220.75,226.39s4.64-2.55,5.27-3.93c1.17-2.55-1.31-8.22-6-12.43-3.65-3.28-9.63-4.11-9.63-4.11h-7.23S224.74,218,220.75,226.39Z"/><path class="cls-76" d="M202.91,206.73c5.1,0,12.15.59,18.29,9,3.72,5.07,2,10.39-3.51,10.39H189s-7.69-.34-5.43-8.73S196.68,206.73,202.91,206.73Z"/><circle class="cls-77" cx="216.23" cy="219.46" r="4.78"/><circle class="cls-78" cx="216.23" cy="219.46" r="3.78"/><circle class="cls-79" cx="216.23" cy="219.46" r="1.42"/><circle class="cls-80" cx="189.85" cy="219.46" r="4.78"/><circle class="cls-78" cx="189.85" cy="219.46" r="3.78"/><circle class="cls-81" cx="189.85" cy="219.46" r="1.42"/><circle class="cls-80" cx="203.16" cy="213.37" r="4.78"/><path class="cls-78" d="M206.93,213.37a3.78,3.78,0,1,1-3.77-3.78A3.77,3.77,0,0,1,206.93,213.37Z"/><circle class="cls-81" cx="203.16" cy="213.37" r="1.42"/><path class="cls-82" d="M203.17,206.73c5.09,0,12.15.59,18.29,9,3.72,5.07,2,10.39-3.51,10.39H189.27s-7.69-.34-5.43-8.73S196.93,206.73,203.17,206.73Z"/><path id="_Clipping_Path_34" data-name="&lt;Clipping Path&gt;" class="cls-5" d="M209.1,196.42a4.28,4.28,0,0,1-4.28,4.28h0a4.28,4.28,0,0,1-4.28-4.28V183a4.27,4.27,0,0,1,4.28-4.28h0A4.27,4.27,0,0,1,209.1,183Z"/><g class="cls-83"><rect class="cls-84" x="194.89" y="176.76" width="9.94" height="27.37"/></g><path class="cls-84" d="M210.06,190a1.22,1.22,0,0,1-1.22,1.22h0a1.22,1.22,0,0,1-1.23-1.22v-5.48a1.23,1.23,0,0,1,1.23-1.23h0a1.23,1.23,0,0,1,1.22,1.23Z"/><circle class="cls-85" cx="204.83" cy="181.14" r="0.7"/><circle class="cls-85" cx="204.83" cy="197.98" r="0.7"/><circle class="cls-86" cx="208.38" cy="198.2" r="1.9"/><path id="_Clipping_Path_35" data-name="&lt;Clipping Path&gt;" class="cls-6" d="M226.56,198.22a3.11,3.11,0,0,1-3.11,3.11h-11.5a3.11,3.11,0,0,1-3.11-3.11h0a3.11,3.11,0,0,1,3.11-3.11h11.5a3.11,3.11,0,0,1,3.11,3.11Z"/><g class="cls-87"><rect class="cls-88" x="207.18" y="193.14" width="22.68" height="5"/></g><path class="cls-79" d="M225.21,196.72a.66.66,0,0,1-.95,0h0a.67.67,0,0,1,0-.95l2.22-2.45a.66.66,0,0,1,.95-.05h0a.68.68,0,0,1,.05,1Z"/><path class="cls-86" d="M227.11,194.3a.68.68,0,0,1-.67-.68h0a.69.69,0,0,1,.69-.67l3.3.07a.67.67,0,0,1,.67.68h0a.67.67,0,0,1-.69.66Z"/><path class="cls-79" d="M225.08,199.69a.67.67,0,0,0-1,0h0a.67.67,0,0,0,0,.95L226.3,203a.67.67,0,0,0,.95.05h0a.68.68,0,0,0,0-1Z"/><path class="cls-86" d="M227,202.11a.68.68,0,0,0-.66.69h0a.68.68,0,0,0,.69.66l3.3-.07a.68.68,0,0,0,.66-.69h0a.67.67,0,0,0-.69-.66Z"/><path class="cls-79" d="M229.07,198.46a.6.6,0,0,1-.6.6h-2.38a.59.59,0,0,1-.59-.6h0a.59.59,0,0,1,.59-.59h2.38a.6.6,0,0,1,.6.59Z"/><path class="cls-86" d="M231.92,198.46a.59.59,0,0,1-.59.6h-2.38a.6.6,0,0,1-.6-.6h0a.6.6,0,0,1,.6-.59h2.38a.59.59,0,0,1,.59.59Z"/><polygon class="cls-85" points="204.37 222.83 171.54 222.83 180.03 182.31 204.37 182.31 204.37 222.83"/><polygon class="cls-89" points="204.37 222.83 217.03 213.34 217.03 177.03 204.37 182.31 204.37 222.83"/><polygon class="cls-80" points="217.03 177.03 198.35 177.03 179.93 182.31 204.37 182.31 217.03 177.03"/><path class="cls-75" d="M202.95,238.22s4.64-2.55,5.28-3.93c1.17-2.55-1.31-8.08-6-12.29-3.65-3.27-8.95-4-11.39-4.25a43.83,43.83,0,0,0-5.46,0S206.95,229.83,202.95,238.22Z"/><path class="cls-76" d="M185.12,218.56c5.09,0,12.15.59,18.29,9,3.72,5.08,2,10.39-3.51,10.39H171.22s-7.69-.34-5.43-8.74S178.88,218.56,185.12,218.56Z"/><circle class="cls-77" cx="198.44" cy="231.29" r="4.78"/><circle class="cls-78" cx="198.44" cy="231.29" r="3.78"/><circle class="cls-79" cx="198.44" cy="231.29" r="1.42"/><circle class="cls-77" cx="172.06" cy="231.29" r="4.78"/><circle class="cls-78" cx="172.06" cy="231.29" r="3.78"/><circle class="cls-79" cx="172.06" cy="231.29" r="1.42"/><path class="cls-77" d="M190.14,225.2a4.77,4.77,0,1,1-4.77-4.78A4.78,4.78,0,0,1,190.14,225.2Z"/><path class="cls-78" d="M189.14,225.2a3.78,3.78,0,1,1-3.77-3.78A3.78,3.78,0,0,1,189.14,225.2Z"/><path class="cls-79" d="M186.78,225.2a1.42,1.42,0,1,1-1.42-1.42A1.42,1.42,0,0,1,186.78,225.2Z"/><path class="cls-82" d="M185.37,218.56c5.09,0,12.15.59,18.29,9,3.72,5.08,2,10.39-3.51,10.39H171.48s-7.69-.34-5.43-8.74S179.14,218.56,185.37,218.56Z"/><polygon class="cls-5" points="206.26 185.37 206.26 214.69 215.77 207.93 215.77 180.58 206.26 185.37"/><path id="_Clipping_Path_36" data-name="&lt;Clipping Path&gt;" class="cls-5" d="M191.06,205.66a4.28,4.28,0,0,1-4.28,4.28h0a4.28,4.28,0,0,1-4.28-4.28V192.22a4.27,4.27,0,0,1,4.28-4.28h0a4.27,4.27,0,0,1,4.28,4.28Z"/><g class="cls-90"><rect class="cls-84" x="176.84" y="186" width="9.94" height="27.37"/></g><path class="cls-84" d="M192,199.21a1.23,1.23,0,0,1-1.23,1.23h0a1.23,1.23,0,0,1-1.23-1.23v-5.48a1.22,1.22,0,0,1,1.23-1.23h0a1.23,1.23,0,0,1,1.23,1.23Z"/><circle class="cls-85" cx="186.78" cy="190.38" r="0.7"/><circle class="cls-85" cx="186.78" cy="207.21" r="0.7"/><circle class="cls-86" cx="190.33" cy="207.44" r="1.9"/><path id="_Clipping_Path_37" data-name="&lt;Clipping Path&gt;" class="cls-6" d="M208.51,207.46a3.11,3.11,0,0,1-3.11,3.11H193.9a3.11,3.11,0,0,1-3.11-3.11h0a3.11,3.11,0,0,1,3.11-3.11h11.5a3.11,3.11,0,0,1,3.11,3.11Z"/><g class="cls-91"><rect class="cls-88" x="189.14" y="202.38" width="22.68" height="5"/></g><path class="cls-79" d="M207.16,206a.66.66,0,0,1-.95,0h0a.67.67,0,0,1,0-.95l2.22-2.45a.67.67,0,0,1,.95,0h0a.67.67,0,0,1,.05,1Z"/><path class="cls-86" d="M209.06,203.54a.68.68,0,0,1-.66-.69h0a.68.68,0,0,1,.69-.67l3.3.07a.67.67,0,0,1,.67.68h0a.68.68,0,0,1-.69.66Z"/><path class="cls-79" d="M207,208.93a.67.67,0,0,0-.95,0h0a.67.67,0,0,0,0,1l2.22,2.45a.67.67,0,0,0,.95,0h0a.68.68,0,0,0,.05-1Z"/><path class="cls-86" d="M208.93,211.35a.68.68,0,0,0-.66.69h0a.68.68,0,0,0,.68.66l3.31-.07a.68.68,0,0,0,.66-.69h0a.67.67,0,0,0-.69-.66Z"/><path class="cls-79" d="M211,207.7a.6.6,0,0,1-.6.59H208a.59.59,0,0,1-.59-.59h0a.59.59,0,0,1,.59-.59h2.38a.6.6,0,0,1,.6.59Z"/><path class="cls-86" d="M213.87,207.7a.59.59,0,0,1-.59.59H210.9a.59.59,0,0,1-.59-.59h0a.59.59,0,0,1,.59-.59h2.38a.59.59,0,0,1,.59.59Z"/><line class="cls-92" x1="208.88" y1="171.29" x2="208.88" y2="158.66"/><circle class="cls-93" cx="208.84" cy="158.75" r="2.5"/><path class="cls-5" d="M214,171.71a6.06,6.06,0,0,1-6.06,6.06h-4.91a6.06,6.06,0,0,1-6.06-6.06h0a6.06,6.06,0,0,1,6.06-6.06H208a6.06,6.06,0,0,1,6.06,6.06Z"/><polygon class="cls-5" points="201.31 180.86 209.84 177.48 200.93 166.05 192.02 169.58 201.31 180.86"/><path class="cls-85" d="M205.53,175.08a6.07,6.07,0,0,1-6.06,6.06h-4.92a6.06,6.06,0,0,1-6.06-6.06h0a6.06,6.06,0,0,1,6.06-6.06h4.92a6.06,6.06,0,0,1,6.06,6.06Z"/><ellipse class="cls-89" cx="208.89" cy="173.47" rx="0.53" ry="1.3"/><ellipse class="cls-89" cx="211.42" cy="172.6" rx="0.53" ry="1.31"/><line class="cls-92" x1="196.4" y1="176.09" x2="196.4" y2="163.46"/><circle class="cls-93" cx="196.36" cy="163.55" r="2.5"/><ellipse class="cls-94" cx="196.4" cy="228.41" rx="43.99" ry="17.85"/><ellipse class="cls-95" cx="196.4" cy="228.41" rx="33.75" ry="10.44"/><ellipse class="cls-96" cx="104.89" cy="295.56" rx="42.34" ry="18.4"/></g></svg>