<svg id="Layer_9" xmlns="http://www.w3.org/2000/svg" xmlns:xlink="http://www.w3.org/1999/xlink" viewBox="0 0 1200 630"><style>.st0{fill:#666}.st1,.st2{fill:#1a71b2}.st2{clip-path:url(#SVGID_2_)}.st3,.st4{fill:#3fb17c}.st4{clip-path:url(#SVGID_4_)}.st5{fill:#00cb70}.st6{fill:#5486b1}.st7{fill:#ff00ad}.st8{fill:#b1127f}.st9{fill:#8cd1ff}.st10{fill:#ff7a78}.st11{fill:#ff8c8c}.st12{fill:#cbcb79}.st13{fill:#ff2019}.st14{fill:#fcff06}.st15{fill:#ffdb19}.st16{fill:#3f9cb1}.st17{fill:#ff0063}.st18{fill:#7497b1}.st19{fill:#3fb17e}.st20{fill:#7d9cb1}.st21{font-family:&apos;CenturyGothic&apos;}.st22{font-size:72px}.st23{font-family:&apos;Montserrat-Bold&apos;}.st24{fill:#ff7300}.st25{font-family:&apos;Montserrat-ExtraBold&apos;}.st26{fill:#006837}</style><title>summer_camp_coupon_template</title><path class="st0" d="M63.2 30.4h8.5v68.1h-8.5V30.4zm56.5 41h-13.6v27.1h-8.5V30.4H125c12.4 0 21.3 8 21.3 20.5 0 12.2-8.4 19-17.7 19.8L147 98.5h-10l-17.3-27.1zm4.3-33.5h-17.9V64H124c8.1 0 13.6-5.4 13.6-13.1s-5.6-13-13.6-13zm27.5-7.5h44.6V38H160v22h35.4v7.5H160V91h36.1v7.6h-44.6V30.4zm82.2-1.2c12 0 20.4 5.3 26.4 12.8l-6.7 4.2c-4.8-6-12-9.4-19.7-9.4-14.9 0-26.2 11.4-26.2 27.7s11.3 27.8 26.2 27.8c6.8 0 13.3-2.7 18.3-7.4V71h-23.4v-7.5h31.8V88c-6.8 7.6-16.6 11.9-26.8 11.7-19.4 0-35-14.2-35-35.3s15.7-35.2 35.1-35.2zm32.4 1.2h8.5v68.1h-8.5V30.4zm17.1 52c5.4 6.1 13.2 9.7 21.4 9.7 12.1 0 16-6.5 16-11.7 0-8.2-8.3-10.4-17.2-12.9-10.9-2.9-23.1-5.9-23.1-19.3 0-11.2 10-18.9 23.4-18.9 10.4 0 18.5 3.5 24.2 9.5l-5.1 6.2c-5.1-5.6-12.2-8.2-19.7-8.2-8.2 0-14 4.4-14 10.8 0 6.8 7.9 8.9 16.5 11.2 11.1 3 23.8 6.4 23.8 20.7 0 9.9-6.7 20-25.1 20-11.8 0-20.5-4.5-26.1-10.8l5-6.3zm67-44.5h-21.5v-7.6h51.6v7.6h-21.6v60.5h-8.5V37.9zm33.2-7.5H428V38h-36.1v22h35.4v7.5h-35.4V91H428v7.6h-44.6V30.4zm71.9 41h-13.6v27.1h-8.5V30.4h27.4c12.5 0 21.3 8 21.3 20.5 0 12.2-8.4 19-17.7 19.8l18.4 27.8h-10l-17.3-27.1zm4.3-33.5h-17.9V64h17.9c8.1 0 13.6-5.4 13.6-13.1s-5.5-13-13.6-13zm27.6-7.5h44.6V38h-36.1v22h35.4v7.5h-35.4V91h36.1v7.6h-44.6V30.4zm49.9 0h23.3c21.1 0 34.9 14.8 34.9 34.1s-13.8 34-34.9 34h-23.3V30.4zm23.3 60.5c16.5 0 26.1-11.8 26.1-26.4S577.2 38 560.4 38h-14.8v53l14.8-.1zm116.4-49.1l-23.2 56.7h-3.5L627 41.8v56.7h-8.5V30.4h12.2l21.1 51.9L673 30.4h12.2v68.1h-8.5l.1-56.7zm36 27.9L686 30.4h9.9L717 62l21.1-31.6h9.9l-26.8 39.3v28.8h-8.5V69.7zm69.4-1.9l-6.8 7.8v22.9h-8.5V30.4h8.5v35.2l30.1-35.2h10.6l-28.4 32.4 30.8 35.7H808l-25.8-30.7zm37.9-37.4h8.5v68.1h-8.5V30.4zm16.2 0h23.3c21.1 0 34.9 14.8 34.9 34.1s-13.8 34-34.9 34h-23.3V30.4zm23.3 60.5c16.5 0 26.1-11.8 26.1-26.4S876.4 38 859.6 38h-14.8v53l14.8-.1zm40.9-8.5c5.4 6.1 13.3 9.7 21.5 9.7 12.2 0 16-6.5 16-11.7 0-8.2-8.3-10.4-17.2-12.9-10.9-2.9-23.1-5.9-23.1-19.3 0-11.2 10-18.9 23.4-18.9 10.4 0 18.5 3.5 24.2 9.5l-5.1 6.2c-5.1-5.6-12.2-8.2-19.7-8.2-8.2 0-14 4.4-14 10.8 0 6.8 7.9 8.9 16.5 11.2 11.1 3 23.8 6.4 23.8 20.7 0 9.9-6.7 20-25.1 20-11.8 0-20.5-4.5-26.1-10.8l4.9-6.3zm69-52h44.6V38H978v22h35.4v7.5H978v31h-8.5V30.4zm79-1.2c20.1 0 33.8 15.1 33.8 35.2s-13.7 35.2-33.8 35.2-33.8-15.1-33.8-35.2 13.5-35.2 33.8-35.2zm0 7.6c-15.3 0-25 11.7-25 27.7s9.7 27.7 25 27.7 25-11.8 25-27.7-9.8-27.7-25-27.7zm60.9 34.6h-13.6v27.1h-8.5V30.4h27.4c12.4 0 21.3 8 21.3 20.5 0 12.2-8.4 19-17.7 19.8l18.4 27.8h-10l-17.3-27.1zm4.3-33.5h-17.9V64h17.9c8.1 0 13.6-5.4 13.6-13.1s-5.5-13-13.6-13z"/><path class="st1" d="M19.9 124.8h59.6l23 81 22.9-81h59.4v133.1h-37V156.4l-28.7 101.5H85.6L57 156.4v101.5H19.9V124.8zM295.8 236h-51.6l-7.1 22h-46.3l55.1-133.1h49.4L350.4 258H303l-7.2-22zm-9.5-28.8L270 159.3l-16.1 47.9h32.4zm33.7-82.4h137.7v32.9h-46.2v100.2h-45.3V157.7H320v-32.9zm148.1 0h45.3v56.8H563v27h45.5V258H563v-49.4h-49.6V258h-45.3V124.8zm94.9 56.8h45.5v-56.8H563v56.8z"/><defs><path id="SVGID_1_" d="M19.9 124.8h59.6l23 81 22.9-81h59.4v133.1h-37V156.4l-28.7 101.5H85.6L57 156.4v101.5H19.9V124.8zM295.8 236h-51.6l-7.1 22h-46.3l55.1-133.1h49.4L350.4 258H303l-7.2-22zm-9.5-28.8L270 159.3l-16.1 47.9h32.4zm33.7-82.4h137.7v32.9h-46.2v100.2h-45.3V157.7H320v-32.9zm148.1 0h45.3v56.8H563v27h45.5V258H563v-49.4h-49.6V258h-45.3V124.8zm94.9 56.8h45.5v-56.8H563v56.8z"/></defs><clipPath id="SVGID_2_"><use xlink:href="#SVGID_1_" overflow="visible"/></clipPath><path class="st2" d="M21.8-16.3h588.5v133.1H21.8V-16.3z"/><path class="st3" d="M641.8 124.4h75.3c16.4 0 28.7 3.5 36.8 10.6 8.2 7.1 12.2 17.2 12.2 30.2 0 13.5-4.4 24-13.3 31.5-8.9 7.6-22.5 11.3-40.8 11.3h-24.8v-27h-45.5l.1-56.6zm45.5 83.7h-45.5v49.4h45.5v-49.4zm0-27h11.1c8.7 0 14.8-1.4 18.4-4.1 3.4-2.5 5.3-6.4 5.3-10.6.1-4-1.6-7.9-4.6-10.6-3-2.9-8.8-4.4-17.3-4.4h-12.9v29.7zm90.3-56.7h45.3v100.4h70.7v32.8h-116V124.4zm216.5 0h45.2v79.4c0 7.6-1.3 15.2-4.1 22.3-2.7 7-7.1 13.3-12.7 18.4-5.2 4.9-11.4 8.6-18.2 11-8.8 2.9-19.4 4.4-31.7 4.4-7.8 0-15.6-.5-23.3-1.4-8.4-.9-15.5-2.7-21.1-5.4-5.9-2.8-11.1-6.7-15.6-11.5-4.3-4.3-7.6-9.5-9.6-15.3-2.8-8.5-4.2-16-4.2-22.5v-79.4H944v81.3c0 7.3 2.2 13 6.6 17 4.4 4 10.6 6.1 18.5 6.1 7.8 0 13.9-2 18.4-6s6.6-9.7 6.6-17.1v-81.3zm53 89.1l43.1-2.4c.9 6.4 2.8 11.2 5.7 14.5 4.6 5.4 11.3 8.1 20 8.1 6.5 0 11.5-1.4 15-4.1 3.5-2.7 5.3-5.9 5.2-9.6 0-3.4-1.6-6.5-5-9.3s-11.1-5.3-23.2-7.7c-19.9-4.1-34-9.4-42.5-16.1-8.5-6.7-12.7-15.3-12.8-25.7 0-7 2.3-13.8 6.6-19.4 4.4-6.1 10.9-10.9 19.7-14.3 8.8-3.5 20.8-5.2 36-5.2 18.7 0 33 3.2 42.9 9.5 9.8 6.3 15.7 16.4 17.5 30.2l-42.7 2.3c-1.1-6-3.5-10.4-7.2-13.1-3.7-2.7-8.7-4.1-15-4.1-5.3 0-9.2 1-11.9 3-2.5 1.7-4 4.4-4 7.4 0 2.1 1.1 4 3.3 5.7s7.2 3.4 15.2 4.9c19.8 3.9 34 7.8 42.5 11.8 8.6 4 14.8 8.9 18.7 14.8 3.9 5.8 5.9 12.7 5.9 19.7 0 8.5-2.7 16.8-7.8 23.6-5.2 7.2-12.5 12.7-21.8 16.4-9.4 3.7-21.1 5.6-35.3 5.6-24.9 0-42.2-4.4-51.8-13.1s-15.1-20-16.3-33.4z"/><defs><path id="SVGID_3_" d="M641.8 124.4h75.3c16.4 0 28.7 3.5 36.8 10.6 8.2 7.1 12.2 17.2 12.2 30.2 0 13.5-4.4 24-13.3 31.5-8.9 7.6-22.5 11.3-40.8 11.3h-24.8v-27h-45.5l.1-56.6zm45.5 83.7h-45.5v49.4h45.5v-49.4zm0-27h11.1c8.7 0 14.8-1.4 18.4-4.1 3.4-2.5 5.3-6.4 5.3-10.6.1-4-1.6-7.9-4.6-10.6-3-2.9-8.8-4.4-17.3-4.4h-12.9v29.7zm90.3-56.7h45.3v100.4h70.7v32.8h-116V124.4zm216.5 0h45.2v79.4c0 7.6-1.3 15.2-4.1 22.3-2.7 7-7.1 13.3-12.7 18.4-5.2 4.9-11.4 8.6-18.2 11-8.8 2.9-19.4 4.4-31.7 4.4-7.8 0-15.6-.5-23.3-1.4-8.4-.9-15.5-2.7-21.1-5.4-5.9-2.8-11.1-6.7-15.6-11.5-4.3-4.3-7.6-9.5-9.6-15.3-2.8-8.5-4.2-16-4.2-22.5v-79.4H944v81.3c0 7.3 2.2 13 6.6 17 4.4 4 10.6 6.1 18.5 6.1 7.8 0 13.9-2 18.4-6s6.6-9.7 6.6-17.1v-81.3zm53 89.1l43.1-2.4c.9 6.4 2.8 11.2 5.7 14.5 4.6 5.4 11.3 8.1 20 8.1 6.5 0 11.5-1.4 15-4.1 3.5-2.7 5.3-5.9 5.2-9.6 0-3.4-1.6-6.5-5-9.3s-11.1-5.3-23.2-7.7c-19.9-4.1-34-9.4-42.5-16.1-8.5-6.7-12.7-15.3-12.8-25.7 0-7 2.3-13.8 6.6-19.4 4.4-6.1 10.9-10.9 19.7-14.3 8.8-3.5 20.8-5.2 36-5.2 18.7 0 33 3.2 42.9 9.5 9.8 6.3 15.7 16.4 17.5 30.2l-42.7 2.3c-1.1-6-3.5-10.4-7.2-13.1-3.7-2.7-8.7-4.1-15-4.1-5.3 0-9.2 1-11.9 3-2.5 1.7-4 4.4-4 7.4 0 2.1 1.1 4 3.3 5.7s7.2 3.4 15.2 4.9c19.8 3.9 34 7.8 42.5 11.8 8.6 4 14.8 8.9 18.7 14.8 3.9 5.8 5.9 12.7 5.9 19.7 0 8.5-2.7 16.8-7.8 23.6-5.2 7.2-12.5 12.7-21.8 16.4-9.4 3.7-21.1 5.6-35.3 5.6-24.9 0-42.2-4.4-51.8-13.1s-15.1-20-16.3-33.4z"/></defs><clipPath id="SVGID_4_"><use xlink:href="#SVGID_3_" overflow="visible"/></clipPath><path class="st4" d="M641.8 122.2h538.3v137.7H641.8V122.2z"/><path class="st5" d="M1012.5 290.5l10.6 10.3c-2.8-4-6.4-7.5-10.6-10.3z"/><path class="st6" d="M794 324.6v2.8l1.8 1.8-1.8-4.6z"/><path class="st7" d="M664.8 376.8h1.5l-1.1-1.1-.4 1.1z"/><path class="st8" d="M623.8 311.9c-9.2-15.7-22.9-23-50-25.1l40.1 35 9.9-9.9z"/><path class="st7" d="M566.7 312.8c15.4-.2 31.5 5.7 37.5 16.9l9.7-7.9-40.1-35c-2.4-.2-4.9-.3-7.5-.2-10.5.1-20.9 2.3-30.5 6.5l21.5 20.9c3.1-.7 6.2-1.1 9.4-1.2z"/><path class="st9" d="M557.3 314l-21.5-20.9c-9.7 4.3-18.3 10.7-25.1 18.8l21.2 20.6c5.6-9.3 14.8-16 25.4-18.5zm69.7 81.2l-25.6-11.9c-1.8 3.7-4.2 7-7.2 9.9l19.8 19.2c5.1-5.1 9.5-10.8 13-17.2z"/><path class="st7" d="M524.8 359c-.2-9.3 2.2-18.5 7-26.5l-21.2-20.6c-7.1 8.5-12 18.5-14.3 29.3l29.9 29.1c-.8-3.7-1.3-7.5-1.4-11.3zm43 39.9c-3-.1-6-.4-9-1l26.9 30.2c10.7-2.6 20.5-8 28.3-15.7l-19.8-19.2c-6.5 6.4-15.8 5.6-26.4 5.7z"/><path class="st10" d="M529.2 369.3l-29.9-29.1c-1.3 6-1.9 12.1-1.9 18.2.1 10 2.1 19.9 6.1 29.1l37 36c9.8 4 20.2 5.9 30.8 5.7 5.8-.1 11.7-.8 17.3-2.1l-25.4-24.7c-16.8-2.7-29.9-15.5-34-33.1z"/><path class="st11" d="M668.2 287.6l-1.3 3.3 65.5 63.7-27.2-67.6-37 .6z"/><path class="st12" d="M655.1 322.6l21.3 20.7L687 312l23.8 62.7-.7-.2 50.2 47.4h.2l-28.3-69-65.4-62.9-11.7 32.6z"/><path class="st8" d="M666.3 375.5l26 23.5h27.5l8.5 24 32-.5-50.2-47.6-43.8.6zm10.1-32.1l-21.3-20.7-11.8 31.8 21.9 21.3 11.2-32.4z"/><path class="st7" d="M664.8 375.4l.4-.4-21.9-20.9-11.8 32 23.5 22.6 2.9-8.5 34.4-1.3-26-23.4-1.5-.1z"/><path class="st9" d="M619.7 416.7l9.1 7.6 20-.3 6.2-16.3-23.5-22.8-11.8 31.8z"/><path class="st13" d="M912.8 284.1l-30.1.4 30.5 30.6-.4-31z"/><path class="st14" d="M882.6 323.4l.1 6.3 31.2 29.3-.6-43.9-30.5-30.6-10.5.1-9 24.1 18.7 19.1.6-4.4z"/><path class="st15" d="M882.7 329.7l.6 43.8 31.2 29.3-.6-43.8-31.2-29.3zM883.3 328l-20.1-19.3-11.8 31.7 19.7 19.1 12.2-31.5z"/><path class="st6" d="M883.9 417.4l8 3.2 22.8-.3-.2-17.4-31.2-29.3.6 43.8zm-32.6-77l-11.7 31.2-28.5-70.2-16.1-15.6-31.5.4.2 12 31.2 29.1v-2.8l1.2 4.6 63.5 62.1 11.7-31.7-20-19.1z"/><path class="st16" d="M763.6 298.3l.6 43.8 31.2 29.1-.6-43.8-31.2-29.1zm60.9 102.6l21.3 6.5 13.3-16.2-63.8-62.1 29.2 71.8z"/><path class="st11" d="M764.9 385.9l31.2 29.1-.6-43.9-31.2-29.1.6 43.9z"/><path class="st12" d="M765.4 422.4l30.7-.4-.1-6.8-31.2-29.1.6 36.3z"/><path class="st17" d="M1010.1 325.8l26.6 25.9c3-6.5 4.5-13.6 4.3-20.7 0-9.3-2.8-18.4-8.1-26.1l-10.6-10.3c-7.5-5-17-7.8-28.6-7.6l-23.4.3 26.8 26c6.2 1.6 11.1 6.4 13 12.5z"/><path class="st18" d="M960.4 313.8l28.8-.4c2.3-.2 4.7 0 6.9.4l-26.8-26.5-40 .6v2.2l31.2 29.1-.1-5.4zm76.3 38.9l-26.7-25.9c.5 1.8.8 3.6.8 5.4.2 11.5-8.3 19.1-19.8 19.4l22.6 22c10.2-3.7 18.5-11.2 23.1-20.9z"/><path class="st13" d="M990.7 350.5l-28.8.4-.4-29.7-31.2-29.1.6 43.8 42 41.2 22-.3c7-.1 13.2-.7 18.7-2.8L991 351.2c0 .1-.2-.7-.3-.7z"/><path class="st14" d="M931.6 378.8l31.2 29.1-.5-31.6 10.7-.1-42-41.2.6 43.8z"/><path class="st15" d="M932.2 417.6l3.6 2.4 27.2-.4-.2-16.7-31.2-29.1.6 43.8z"/><path class="st19" d="M1152.5 297.9c-13.6-12.2-31.4-18.5-52.7-18.6l38.7 37.6 14-19z"/><path class="st20" d="M1064.7 288.4l19.7 19.1c3.8-1.6 7.9-2.4 12-2.4 13.5-.2 28.6 4.4 40 14.6l2.1-2.9-38.7-37.6h-1.7c-13.5.3-24.8 3.7-33.4 9.2zm90.3 89c0-25.9-21-34.6-41.2-39.6l41.2 40.1v-.5z"/><path class="st5" d="M1046.7 314.1l50.7 49.3 1.1.2c16.1 3.5 28.2 6.9 28.3 17.3 0 3-1.1 5.9-3 8.2l20.2 19.7c8.6-7.9 12.7-18.7 12.7-30.9l-41.2-40.1c-3.9-1-7.7-1.8-11.4-2.6-16.1-3.5-27.8-6.3-27.9-15.6-.1-5.3 2.7-9.6 8.2-12.1l-19.7-19.1c-9.8 6.3-16.1 15.4-18 25.7z"/><path class="st17" d="M1097.3 363.4l-50.7-49.3c-.5 2.6-.7 5.2-.7 7.8.5 30.5 28.8 36.7 51.4 41.5zm5.5 33.5c-6.1.1-12.2-.7-18-2.4L1113 422c13.5-1.8 23.8-6.4 31-13.1l-20.3-19.7c-3.5 4.3-10.5 7.6-20.9 7.7z"/><path class="st18" d="M1058.4 378.8l-13.8 19.9 16 15.6c11.1 5.5 24.7 8.7 41.1 8.5 3.8 0 7.6-.3 11.3-.8l-28.2-27.5c-10-2.9-19.1-8.3-26.4-15.7z"/><path d="M570.1 430.1c-43.1.6-76.1-30.7-76.7-72.8-.6-41.7 32-73.6 75.8-74.2 20.7-.3 42.6 8.5 57.1 23.1l2.8 2.8-23.3 29-3.5-3.9c-8.8-9.9-21.2-15.9-32.3-15.7-21.1.3-36.7 16.6-36.4 37.9s16.4 37.3 37.5 37c10.8-.1 23.1-5.9 32-15.1l3.2-3.3 24.3 25.7-2.9 3c-15 16.1-37.2 26.2-57.6 26.5zm-.8-138.2c-38.8.5-67.6 28.6-67.1 65.3.5 37.1 29.7 64.7 67.8 64.2 16.9-.2 35.2-8.1 48.5-20.7l-12.4-13c-10.2 9-22.9 14.4-34.9 14.6-25.7.4-46-19.7-46.4-45.7s19.5-46.4 45.1-46.8c12-.2 25.2 5.5 35.3 15l11.9-15c-13.2-11.6-30.2-18-47.8-17.9z"/><path d="M770.1 426l-42.4.6-11-26.3-57 .8-10.3 26.5-41.3.6 60.8-145.6 37.4-.5L770.1 426zm-36.6-8.3l23.2-.3L700.6 291l-25.9.4-53.4 127.9 22-.3 10.3-26.6 68.8-1 11.1 26.3zm-17.7-42l-56 .8 27.2-69.4 28.8 68.6zm-43-8.1l29.9-.4-15.4-36.6-14.5 37z"/><path d="M917.9 423.9l-36.3.5-1.1-76.1-28 62.8-25.6.4-29.9-62 1.1 76.1-36.5.5-2-144.7 41.5-.6 38 76.8 35.6-77.8 41.3-.6 1.9 144.7zm-27.7-8.4l18.8-.3-1.8-127.1-27 .4-40.9 89.5-43.6-88.4-27.2.4 1.8 127.1 19-.3-1.5-107.2 44.6 92.8 14.4-.2 42-94 1.4 107.3zm76.8 7.7l-39.5.5-2-144.7 62.1-.9c36.8-.5 59 18.5 59.5 50.8.5 34-21.2 54.6-58 55.1l-22.6.3.5 38.9zm-30.8-8.3l21.9-.3-.5-38.8 31.4-.4c32.2-.5 49.8-16.9 49.3-46.2-.4-27.6-18.3-42.5-50.6-42.1l-53.3.8 1.8 127zm50.9-56.5l-29.8.4-.8-54.8 29.8-.4c19.8-.3 31.3 9.4 31.6 26.7.3 17.6-10.9 27.9-30.8 28.1zM966 350l21-.3c15.1-.2 22.3-6.5 22.1-19.2-.2-12.3-7.6-18.2-22.7-18l-21 .3.6 37.2z"/><path d="M1099.9 426.2c-22.7 0-46.2-8.5-62.8-22.6l-2.6-2.2 16.3-33.4 4.3 3.8c12.8 11.4 31.4 19.3 45.2 19.3 5.9 0 15.8-1.1 15.8-8.6 0-7-9.3-10.1-24.6-14.3-20.2-5.6-47.9-13.3-47.9-44.5 0-26.7 22.9-44.6 57-44.6 19.1 0 39.3 5.8 54.1 15.5l3.2 2.1-15.4 33.4-4.2-2.5c-13.2-7.9-29.7-13.4-40.1-13.4-3.9 0-12.9.6-12.9 6.7 0 6.7 9.1 9.8 24.1 14.1 20.4 5.9 48.3 14 48.2 45.9-.1 27.4-22.7 45.3-57.7 45.3zm-54.6-27.2c14.9 11.5 35 18.4 54.5 18.4 29.7 0 48.8-14.4 48.8-36.6.1-25.2-21.2-31.4-41.8-37.4-15.7-4.5-30.4-8.8-30.4-22.6 0-7.5 5.7-15.5 21.7-15.5 10.8 0 26.6 4.8 40.4 12.2l8.2-17.6c-13-7.6-29.9-12-46-12-29.3 0-48.2 14.1-48.2 35.8 0 24.5 21.1 30.4 41.4 36 15.9 4.4 31 8.6 31 22.8 0 10.9-9.2 17.4-24.6 17.4-14.3 0-32.7-7.2-46.7-17.9l-8.3 17zM83.9 305.8H42.1v-14.7h100.3v14.7h-42v117.5H83.9V305.8zm68.4-14.7h86.6v14.7h-70.2v42.6h68.8v14.7h-68.8v45.6h70.1v14.7h-86.6V291.1zm95.5 66.2c0-40.6 29.9-68.4 67.4-68.4 24 0 40.2 11.3 50.7 26.2l-13.9 7.7c-8.4-12.1-22.2-19.2-36.9-19.2-28.3 0-50.3 22.2-50.3 53.7 0 31.3 22 53.7 50.3 53.7 14.7.1 28.5-7.1 36.9-19.2l14.1 7.7c-11.1 15.1-27 26.2-50.9 26.2-37.5 0-67.4-27.8-67.4-68.4zm221.2 5.4h-77.3v60.6h-16.5V291.1h16.5V348H469v-56.9h16.5v132.2H469v-60.6z"/><text transform="translate(136.63 507.82)" class="st21 st22">Use code</text><text transform="translate(513.963 510.82)" class="st24 st25 st22">CouponCode</text><path d="M112.8 539.1h10.6l9.7 18.6 9.6-18.6h10.4L138 568.4v22.4h-10v-22.4l-15.2-29.3zm60.9 12.4c3.6 0 7.1.9 10.2 2.7 6.3 3.5 10.1 10.2 10.1 17.4 0 3.6-.9 7.1-2.7 10.1-1.7 3.1-4.3 5.6-7.3 7.4-3.1 1.8-6.6 2.7-10.2 2.7-5.3.1-10.3-2-14-5.8-7.8-8-7.7-20.8.3-28.7l.5-.5c3.5-3.4 8.2-5.3 13.1-5.3zm.2 9c-2.8-.1-5.5 1.1-7.4 3.1-2 2.2-3.1 5-3 8-.1 3 .9 5.9 2.9 8.1 1.9 2 4.6 3.2 7.4 3.1 2.8.1 5.6-1.1 7.5-3.1 3.9-4.6 4-11.4.1-16-2-2.1-4.7-3.2-7.5-3.2zm23.6-8h9.7v18.4c-.1 2.5.1 5 .7 7.5.4 1.3 1.3 2.4 2.4 3.2 1.2.8 2.6 1.2 4 1.2s2.9-.3 4.1-1.1c1.2-.8 2-2 2.5-3.4.4-1.1.6-3.5.6-7.1v-18.7h9.6v16.2c0 6.7-.5 11.2-1.6 13.7-1.2 2.8-3.1 5.2-5.7 6.9-2.9 1.7-6.2 2.5-9.6 2.4-4.2 0-7.6-.9-10.2-2.8-2.6-1.9-4.6-4.7-5.5-7.8-.7-2.3-1.1-6.5-1.1-12.7l.1-15.9zm78.2 5.4l-5.9 5.9c-2.4-2.4-4.6-3.6-6.6-3.6-.9-.1-1.8.2-2.5.7-.6.4-.9 1-.9 1.7 0 .5.2 1 .6 1.4.9.7 1.8 1.3 2.9 1.8l3.5 1.8c3.7 1.8 6.2 3.7 7.6 5.6 3.3 4.8 2.6 11.3-1.7 15.2-2.5 2.3-5.8 3.4-10 3.4-5.3.1-10.3-2.3-13.4-6.5l5.9-6.4c1.1 1.3 2.5 2.4 4 3.2 1.2.7 2.6 1.1 4 1.2 1.1.1 2.2-.3 3.1-.9.7-.5 1.1-1.3 1.2-2.1 0-1.5-1.4-2.9-4.2-4.3l-3.2-1.6c-6.2-3.1-9.3-7-9.3-11.7 0-3 1.3-5.8 3.5-7.8 2.5-2.2 5.7-3.3 9-3.2 4.8-.1 9.4 2.2 12.4 6.2zm32.2-5.4h9.6v38.2h-9.6v-4c-1.6 1.6-3.5 2.9-5.6 3.8-1.9.8-4 1.2-6.1 1.2-4.9 0-9.6-2.1-12.8-5.8-3.6-3.9-5.6-9-5.4-14.3 0-5.9 1.7-10.7 5.2-14.5 3.2-3.6 7.9-5.7 12.7-5.7 2.2 0 4.4.4 6.5 1.3 2.1.9 4 2.2 5.6 3.9l-.1-4.1zm-10.1 7.9c-2.8-.1-5.5 1.1-7.4 3.2-2 2.2-3.1 5.1-2.9 8.1-.1 3 1 5.9 3 8.2 1.9 2.1 4.6 3.3 7.4 3.2 2.8.1 5.6-1.1 7.5-3.2 2-2.2 3.1-5.2 3-8.2.1-3-1-5.9-3-8.1-2.1-2.2-4.8-3.3-7.6-3.2zm20.9-7.9h9.8l9.7 22.6 9.6-22.6h9.7l-16.3 38.2H335l-16.3-38.2zm78.4 21.9h-30.8c.3 2.5 1.6 4.8 3.6 6.5 2.1 1.7 4.7 2.5 7.4 2.4 3.5.1 6.8-1.3 9.2-3.8l8.1 3.8c-1.8 2.7-4.3 4.9-7.2 6.3-3.1 1.4-6.6 2.1-10 2.1-6 0-10.9-1.9-14.7-5.7-3.8-3.8-5.9-8.9-5.7-14.2-.2-5.4 1.9-10.7 5.6-14.5 3.7-3.8 8.8-5.9 14.1-5.8 6 0 10.9 1.9 14.7 5.8 3.8 3.9 5.7 8.9 5.7 15.3v1.8zm-9.6-7.5c-.6-2.1-1.9-3.9-3.8-5.2-1.9-1.3-4.2-2-6.5-2-2.5 0-5 .8-7 2.2-1.6 1.4-2.8 3.1-3.5 5h20.8z"/><path class="st26" d="M448.1 545l-6.8 6.6c-3.1-3.2-6.2-4.8-9.2-4.8-1.6-.1-3.1.4-4.3 1.4-1 .8-1.6 2-1.7 3.3.1 1.2.6 2.3 1.5 3.1 1 1.1 2.9 2.2 5.8 3.4 5.2 2.2 8.8 4 10.7 5.5 1.9 1.5 3.4 3.3 4.4 5.5 1.1 2.2 1.6 4.7 1.5 7.2 0 2.5-.5 5.1-1.6 7.3-1 2.1-2.4 3.9-4.2 5.3-2.3 1.5-4.8 2.6-7.5 3v9.4h-6.6V592c-2.7-.3-5.4-1-7.8-2.3-3.1-1.7-5.8-3.9-8.2-6.5l6.7-6.9c4.3 4.6 8.4 6.9 12.5 6.9 2 0 3.9-.7 5.3-2.1 2.6-2.4 2.9-6.4.8-9.3-1-1.2-2.8-2.5-5.5-3.7-5.6-2.6-9.4-4.6-11.3-6.1-1.8-1.4-3.3-3.1-4.4-5.1-1-1.9-1.5-3.9-1.5-6 0-3.4 1.4-6.7 3.9-9.1 2.6-2.5 6.1-4 9.8-4.1v-3.5h6.6v4c2 .4 4 1.2 5.8 2.2 1.8 1.3 3.6 2.8 5.3 4.6z"/><path d="M457 581l6.9 3.5-8.7 14.8-4.8-2.3 6.6-16zm27.4-41.9h9.8v51.7h-9.8v-51.7zm54.7 18.8l-5.9 5.9c-2.4-2.4-4.6-3.6-6.6-3.6-.9-.1-1.8.2-2.5.7-.6.4-.9 1-.9 1.7 0 .5.2 1 .6 1.4.9.7 1.8 1.3 2.9 1.8l3.5 1.8c3.7 1.8 6.2 3.7 7.6 5.6 3.3 4.8 2.6 11.3-1.7 15.2-2.5 2.3-5.8 3.4-10 3.4-5.3.1-10.3-2.3-13.4-6.5l5.9-6.4c1.1 1.3 2.5 2.4 4 3.2 1.2.7 2.6 1.1 4 1.2 1.1.1 2.2-.3 3.1-.9.7-.5 1.1-1.3 1.2-2.1 0-1.5-1.4-2.9-4.2-4.3l-3.2-1.6c-6.2-3.1-9.3-7-9.3-11.7 0-3 1.3-5.8 3.5-7.8 2.5-2.2 5.7-3.3 9-3.2 4.9-.1 9.5 2.2 12.4 6.2zm32.2-5.4h9.6v38.2h-9.6v-4c-1.6 1.6-3.5 2.9-5.6 3.8-1.9.8-4 1.2-6.1 1.2-4.9 0-9.6-2.1-12.8-5.8-3.6-3.9-5.6-9-5.4-14.3 0-5.9 1.7-10.7 5.2-14.5 3.2-3.6 7.9-5.7 12.7-5.7 2.2 0 4.4.4 6.5 1.3 2.1.9 4 2.2 5.6 3.9l-.1-4.1zm-10.1 7.9c-2.8-.1-5.5 1.1-7.4 3.2-2 2.2-3.1 5.1-2.9 8.1-.1 3 1 5.9 3 8.2 1.9 2.1 4.6 3.3 7.4 3.2 2.8.1 5.6-1.1 7.5-3.2 2-2.2 3.1-5.2 3-8.2.1-3-1-5.9-3-8.1-2-2.2-4.7-3.3-7.6-3.2zm21-7.9h9.8l9.7 22.6 9.6-22.6h9.7l-16.3 38.2h-6.2l-16.3-38.2zm78.4 21.9h-30.8c.3 2.5 1.6 4.8 3.6 6.5 2.1 1.7 4.7 2.5 7.4 2.4 3.5.1 6.8-1.3 9.2-3.8l8.1 3.8c-1.8 2.7-4.3 4.9-7.2 6.3-3.1 1.4-6.6 2.1-10 2.1-6 0-10.9-1.9-14.7-5.7-3.8-3.8-5.8-8.9-5.7-14.2-.2-5.4 1.9-10.7 5.6-14.5 3.7-3.8 8.8-5.9 14.2-5.8 6 0 10.9 1.9 14.7 5.8s5.7 8.9 5.7 15.3l-.1 1.8zm-9.6-7.5c-.6-2.1-1.9-3.9-3.8-5.2-1.9-1.3-4.2-2-6.5-2-2.5 0-5 .8-7 2.2-1.6 1.4-2.8 3.1-3.5 5H651z"/><path class="st26" d="M711.6 545l-6.8 6.6c-3.1-3.2-6.2-4.8-9.2-4.8-1.6-.1-3.1.4-4.3 1.4-1 .8-1.6 2-1.7 3.3.1 1.2.6 2.3 1.5 3.1 1 1.1 2.9 2.2 5.8 3.4 5.2 2.2 8.8 4 10.7 5.5 1.9 1.5 3.4 3.3 4.4 5.5 1.1 2.2 1.6 4.7 1.5 7.2 0 2.5-.5 5.1-1.7 7.3-1 2.1-2.4 3.9-4.2 5.3-2.3 1.5-4.8 2.6-7.5 3v9.4h-6.6V592c-2.7-.3-5.4-1-7.8-2.3-3.1-1.7-5.8-3.9-8.2-6.5l6.7-6.9c4.3 4.6 8.4 6.9 12.5 6.9 2 0 3.9-.7 5.3-2.1 2.6-2.4 2.9-6.4.8-9.3-1-1.2-2.8-2.5-5.5-3.7-5.6-2.6-9.4-4.6-11.3-6.1-1.8-1.4-3.3-3.1-4.4-5.1-1-1.9-1.5-3.9-1.5-6 0-3.4 1.4-6.7 3.9-9.1 2.6-2.5 6.1-4 9.8-4.1v-3.5h6.6v4c2 .4 4 1.2 5.8 2.2 1.8 1.3 3.7 2.8 5.4 4.6z"/><path d="M721.1 580.8c1.5 0 2.9.6 3.9 1.6 1.1 1 1.6 2.4 1.6 3.9-.3 3-2.9 5.3-6 5-2.7-.2-4.8-2.4-5-5 0-1.5.6-2.9 1.6-3.9 1.1-1.1 2.5-1.7 3.9-1.6zm23.6-41.7h9.7l7.5 33 9.2-33h8.2l9.4 33 7.4-33h9.7L794 590.8h-9.4l-9.5-33.4-9.3 33.4h-9.3l-11.8-51.7zm67.1-2.3c1.6 0 3.2.6 4.3 1.8 1.2 1.2 1.8 2.7 1.8 4.4 0 1.6-.6 3.2-1.8 4.4-1.1 1.2-2.7 1.8-4.3 1.8-1.7 0-3.2-.6-4.4-1.8-1.2-1.2-1.8-2.8-1.8-4.5.1-3.4 2.8-6.1 6.2-6.1zm-4.8 15.7h9.6v38.2H807v-38.2zm14 0h9.6v3.9c1.8-1.6 3.8-2.9 5.9-3.8 1.7-.7 3.6-1.1 5.4-1.1 3.6-.1 7.1 1.4 9.7 4 2.2 2.3 3.3 5.6 3.3 10v25.3h-9.5V574c0-4.6-.2-7.6-.6-9.1-.3-1.3-1.1-2.5-2.1-3.4-1.1-.8-2.4-1.2-3.8-1.2-1.9 0-3.7.7-5 2-1.5 1.5-2.5 3.3-2.9 5.4-.4 2.6-.5 5.2-.4 7.8v15.3H821v-38.3zm44.1 28.3c1.5 0 2.9.6 3.9 1.6 1.1 1 1.6 2.4 1.6 3.9-.3 3-2.9 5.3-6 5-2.7-.2-4.8-2.4-5-5 0-1.5.6-2.9 1.6-3.9 1-1.1 2.4-1.7 3.9-1.6zm23.5-41.7h9.7l7.5 33 9.2-33h8.2l9.4 33 7.4-33h9.7L938 590.8h-9.4l-9.6-33.4-9.3 33.4h-9.3l-11.8-51.7zm67.1-2.3c1.6 0 3.2.7 4.3 1.8 1.2 1.2 1.8 2.8 1.8 4.4 0 1.6-.6 3.2-1.8 4.4-1.1 1.2-2.7 1.8-4.3 1.8-1.7 0-3.2-.6-4.4-1.8-1.2-1.2-1.8-2.8-1.8-4.5.1-3.4 2.8-6.1 6.2-6.1zm-4.8 15.7h9.6v38.2h-9.6v-38.2zm14 0h9.6v3.9c1.8-1.6 3.8-2.9 5.9-3.8 1.7-.7 3.6-1.1 5.4-1.1 3.6-.1 7.1 1.4 9.7 4 2.2 2.3 3.3 5.6 3.3 10v25.3h-9.5V574c0-4.6-.2-7.6-.6-9.1-.3-1.3-1.1-2.5-2.1-3.4-1.1-.8-2.4-1.2-3.8-1.2-1.9 0-3.7.7-5 2-1.5 1.5-2.5 3.3-2.9 5.4-.4 2.6-.5 5.2-.4 7.8v15.3h-9.6v-38.3zm44.1 28.3c1.5 0 2.9.6 3.9 1.6 1.1 1 1.6 2.4 1.6 3.9-.3 3-2.9 5.3-6 5-2.7-.2-4.8-2.4-5-5 0-1.5.6-2.9 1.6-3.9 1.1-1.1 2.4-1.7 3.9-1.6zm31.7-29.3c3 0 5.5 2.5 5.5 5.5s-2.5 5.5-5.5 5.5c-1.4 0-2.8-.6-3.9-1.6s-1.6-2.4-1.6-3.9c0-3 2.4-5.5 5.5-5.5zm0 29.3c1.5 0 2.9.6 3.9 1.6 1.1 1 1.6 2.4 1.6 3.9-.3 3-2.9 5.3-6 5-2.7-.2-4.8-2.4-5-5 0-1.5.6-2.9 1.6-3.9 1-1.1 2.4-1.7 3.9-1.6zm19.7 25h-12.2c4-4.5 7.2-9.7 9.3-15.3 2.1-6.1 3.2-12.5 3.1-18.9.1-6.9-1-13.7-3.4-20.2-2.3-5.3-5.3-10.2-9-14.6h12.2c3.4 5.2 6 10.8 7.9 16.7 1.6 6 2.3 12.1 2.2 18.3.1 6.1-.7 12.2-2.4 18.1-1.7 5.7-4.3 11-7.7 15.9z"/></svg>
