<?xml version="1.0" encoding="utf-8"?>
<!-- Generator: Adobe Illustrator 19.2.0, SVG Export Plug-In . SVG Version: 6.00 Build 0)  -->
<svg version="1.1" id="Layer_9" xmlns="http://www.w3.org/2000/svg" xmlns:xlink="http://www.w3.org/1999/xlink" x="0px" y="0px"
	 viewBox="0 0 1200 630" style="enable-background:new 0 0 1200 630;" xml:space="preserve">
<style type="text/css">
	.st0{fill:#666666;}
	.st1{fill:#1A71B2;}
	.st2{clip-path:url(#SVGID_2_);fill:#1A71B2;}
	.st3{fill:#3FB17C;}
	.st4{clip-path:url(#SVGID_4_);fill:#3FB17C;}
	.st5{fill:#00CB70;}
	.st6{fill:#5486B1;}
	.st7{fill:#FF00AD;}
	.st8{fill:#B1127F;}
	.st9{fill:#8CD1FF;}
	.st10{fill:#FF7A78;}
	.st11{fill:#FF8C8C;}
	.st12{fill:#CBCB79;}
	.st13{fill:#FF2019;}
	.st14{fill:#FCFF06;}
	.st15{fill:#FFDB19;}
	.st16{fill:#3F9CB1;}
	.st17{fill:#FF0063;}
	.st18{fill:#7497B1;}
	.st19{fill:#3FB17E;}
	.st20{fill:#7D9CB1;}
	.st21{font-family:'CenturyGothic';}
	.st22{font-size:72px;}
	.st23{font-family:'Montserrat-Bold';}
	.st24{fill:#FF7300;}
	.st25{font-family:'Montserrat-ExtraBold';}
	.st26{fill:#006837;}
</style>
<title>summer_camp_coupon_template</title>
<path class="st0" d="M63.2,30.4h8.5v68.1h-8.5C63.2,98.5,63.2,30.4,63.2,30.4z M119.7,71.4h-13.6v27.1h-8.5V30.4H125
	c12.4,0,21.3,8,21.3,20.5c0,12.2-8.4,19-17.7,19.8L147,98.5h-10L119.7,71.4z M124,37.9h-17.9V64H124c8.1,0,13.6-5.4,13.6-13.1
	S132,37.9,124,37.9z M151.5,30.4h44.6v7.6H160v22h35.4v7.5H160v23.5h36.1v7.6h-44.6L151.5,30.4L151.5,30.4z M233.7,29.2
	c12,0,20.4,5.3,26.4,12.8l-6.7,4.2c-4.8-6-12-9.4-19.7-9.4c-14.9,0-26.2,11.4-26.2,27.7s11.3,27.8,26.2,27.8
	c6.8,0,13.3-2.7,18.3-7.4V71h-23.4v-7.5h31.8V88c-6.8,7.6-16.6,11.9-26.8,11.7c-19.4,0-35-14.2-35-35.3S214.3,29.2,233.7,29.2
	L233.7,29.2z M266.1,30.4h8.5v68.1h-8.5V30.4z M283.2,82.4c5.4,6.1,13.2,9.7,21.4,9.7c12.1,0,16-6.5,16-11.7
	c0-8.2-8.3-10.4-17.2-12.9c-10.9-2.9-23.1-5.9-23.1-19.3c0-11.2,10-18.9,23.4-18.9c10.4,0,18.5,3.5,24.2,9.5l-5.1,6.2
	c-5.1-5.6-12.2-8.2-19.7-8.2c-8.2,0-14,4.4-14,10.8c0,6.8,7.9,8.9,16.5,11.2c11.1,3,23.8,6.4,23.8,20.7c0,9.9-6.7,20-25.1,20
	c-11.8,0-20.5-4.5-26.1-10.8L283.2,82.4z M350.2,37.9h-21.5v-7.6h51.6v7.6h-21.6v60.5h-8.5L350.2,37.9L350.2,37.9z M383.4,30.4H428
	v7.6h-36.1v22h35.4v7.5h-35.4v23.5H428v7.6h-44.6V30.4z M455.3,71.4h-13.6v27.1h-8.5V30.4h27.4c12.5,0,21.3,8,21.3,20.5
	c0,12.2-8.4,19-17.7,19.8l18.4,27.8h-10L455.3,71.4z M459.6,37.9h-17.9V64h17.9c8.1,0,13.6-5.4,13.6-13.1S467.7,37.9,459.6,37.9z
	 M487.2,30.4h44.6v7.6h-36.1v22h35.4v7.5h-35.4v23.5h36.1v7.6h-44.6V30.4z M537.1,30.4h23.3c21.1,0,34.9,14.8,34.9,34.1
	s-13.8,34-34.9,34h-23.3C537.1,98.5,537.1,30.4,537.1,30.4z M560.4,90.9c16.5,0,26.1-11.8,26.1-26.4s-9.3-26.5-26.1-26.5h-14.8v53
	L560.4,90.9L560.4,90.9z M676.8,41.8l-23.2,56.7h-3.5l-23.1-56.7v56.7h-8.5V30.4h12.2l21.1,51.9l21.2-51.9h12.2v68.1h-8.5
	L676.8,41.8L676.8,41.8z M712.8,69.7L686,30.4h9.9L717,62l21.1-31.6h9.9l-26.8,39.3v28.8h-8.5V69.7z M782.2,67.8l-6.8,7.8v22.9h-8.5
	V30.4h8.5v35.2l30.1-35.2h10.6l-28.4,32.4l30.8,35.7H808L782.2,67.8z M820.1,30.4h8.5v68.1h-8.5V30.4z M836.3,30.4h23.3
	c21.1,0,34.9,14.8,34.9,34.1s-13.8,34-34.9,34h-23.3C836.3,98.5,836.3,30.4,836.3,30.4z M859.6,90.9c16.5,0,26.1-11.8,26.1-26.4
	s-9.3-26.5-26.1-26.5h-14.8v53L859.6,90.9L859.6,90.9z M900.5,82.4c5.4,6.1,13.3,9.7,21.5,9.7c12.2,0,16-6.5,16-11.7
	c0-8.2-8.3-10.4-17.2-12.9c-10.9-2.9-23.1-5.9-23.1-19.3c0-11.2,10-18.9,23.4-18.9c10.4,0,18.5,3.5,24.2,9.5l-5.1,6.2
	c-5.1-5.6-12.2-8.2-19.7-8.2c-8.2,0-14,4.4-14,10.8c0,6.8,7.9,8.9,16.5,11.2c11.1,3,23.8,6.4,23.8,20.7c0,9.9-6.7,20-25.1,20
	c-11.8,0-20.5-4.5-26.1-10.8L900.5,82.4z M969.5,30.4h44.6v7.6h-36.1v22h35.4v7.5h-35.4v31h-8.5V30.4z M1048.5,29.2
	c20.1,0,33.8,15.1,33.8,35.2s-13.7,35.2-33.8,35.2s-33.8-15.1-33.8-35.2S1028.2,29.2,1048.5,29.2z M1048.5,36.8
	c-15.3,0-25,11.7-25,27.7s9.7,27.7,25,27.7s25-11.8,25-27.7S1063.7,36.8,1048.5,36.8z M1109.4,71.4h-13.6v27.1h-8.5V30.4h27.4
	c12.4,0,21.3,8,21.3,20.5c0,12.2-8.4,19-17.7,19.8l18.4,27.8h-10L1109.4,71.4z M1113.7,37.9h-17.9V64h17.9c8.1,0,13.6-5.4,13.6-13.1
	S1121.8,37.9,1113.7,37.9z"/>
<path class="st1" d="M19.9,124.8h59.6l23,81l22.9-81h59.4v133.1h-37V156.4l-28.7,101.5H85.6L57,156.4v101.5H19.9V124.8z M295.8,236
	h-51.6l-7.1,22h-46.3l55.1-133.1h49.4L350.4,258H303L295.8,236z M286.3,207.2L270,159.3l-16.1,47.9L286.3,207.2L286.3,207.2z
	 M320,124.8h137.7v32.9h-46.2v100.2h-45.3V157.7H320C320,157.7,320,124.8,320,124.8z M468.1,124.8h45.3v56.8H563v27h45.5V258H563
	v-49.4h-49.6v49.4h-45.3L468.1,124.8L468.1,124.8z M563,181.6h45.5v-56.8H563V181.6z"/>
<g>
	<defs>
		<path id="SVGID_1_" d="M19.9,124.8h59.6l23,81l22.9-81h59.4v133.1h-37V156.4l-28.7,101.5H85.6L57,156.4v101.5H19.9V124.8z
			 M295.8,236h-51.6l-7.1,22h-46.3l55.1-133.1h49.4L350.4,258H303L295.8,236z M286.3,207.2L270,159.3l-16.1,47.9L286.3,207.2
			L286.3,207.2z M320,124.8h137.7v32.9h-46.2v100.2h-45.3V157.7H320C320,157.7,320,124.8,320,124.8z M468.1,124.8h45.3v56.8H563v27
			h45.5V258H563v-49.4h-49.6v49.4h-45.3L468.1,124.8L468.1,124.8z M563,181.6h45.5v-56.8H563V181.6z"/>
	</defs>
	<clipPath id="SVGID_2_">
		<use xlink:href="#SVGID_1_"  style="overflow:visible;"/>
	</clipPath>
	<path class="st2" d="M21.8-16.3h588.5v133.1H21.8V-16.3z"/>
</g>
<path class="st3" d="M641.8,124.4h75.3c16.4,0,28.7,3.5,36.8,10.6c8.2,7.1,12.2,17.2,12.2,30.2c0,13.5-4.4,24-13.3,31.5
	c-8.9,7.6-22.5,11.3-40.8,11.3h-24.8v-27h-45.5L641.8,124.4L641.8,124.4z M687.3,208.1h-45.5v49.4h45.5V208.1z M687.3,181.1h11.1
	c8.7,0,14.8-1.4,18.4-4.1c3.4-2.5,5.3-6.4,5.3-10.6c0.1-4-1.6-7.9-4.6-10.6c-3-2.9-8.8-4.4-17.3-4.4h-12.9L687.3,181.1L687.3,181.1z
	 M777.6,124.4h45.3v100.4h70.7v32.8h-116L777.6,124.4L777.6,124.4z M994.1,124.4h45.2v79.4c0,7.6-1.3,15.2-4.1,22.3
	c-2.7,7-7.1,13.3-12.7,18.4c-5.2,4.9-11.4,8.6-18.2,11c-8.8,2.9-19.4,4.4-31.7,4.4c-7.8,0-15.6-0.5-23.3-1.4
	c-8.4-0.9-15.5-2.7-21.1-5.4c-5.9-2.8-11.1-6.7-15.6-11.5c-4.3-4.3-7.6-9.5-9.6-15.3c-2.8-8.5-4.2-16-4.2-22.5v-79.4H944v81.3
	c0,7.3,2.2,13,6.6,17c4.4,4,10.6,6.1,18.5,6.1c7.8,0,13.9-2,18.4-6s6.6-9.7,6.6-17.1L994.1,124.4L994.1,124.4z M1047.1,213.5
	l43.1-2.4c0.9,6.4,2.8,11.2,5.7,14.5c4.6,5.4,11.3,8.1,20,8.1c6.5,0,11.5-1.4,15-4.1c3.5-2.7,5.3-5.9,5.2-9.6c0-3.4-1.6-6.5-5-9.3
	s-11.1-5.3-23.2-7.7c-19.9-4.1-34-9.4-42.5-16.1c-8.5-6.7-12.7-15.3-12.8-25.7c0-7,2.3-13.8,6.6-19.4c4.4-6.1,10.9-10.9,19.7-14.3
	c8.8-3.5,20.8-5.2,36-5.2c18.7,0,33,3.2,42.9,9.5c9.8,6.3,15.7,16.4,17.5,30.2l-42.7,2.3c-1.1-6-3.5-10.4-7.2-13.1
	c-3.7-2.7-8.7-4.1-15-4.1c-5.3,0-9.2,1-11.9,3c-2.5,1.7-4,4.4-4,7.4c0,2.1,1.1,4,3.3,5.7s7.2,3.4,15.2,4.9
	c19.8,3.9,34,7.8,42.5,11.8c8.6,4,14.8,8.9,18.7,14.8c3.9,5.8,5.9,12.7,5.9,19.7c0,8.5-2.7,16.8-7.8,23.6
	c-5.2,7.2-12.5,12.7-21.8,16.4c-9.4,3.7-21.1,5.6-35.3,5.6c-24.9,0-42.2-4.4-51.8-13.1S1048.3,226.9,1047.1,213.5L1047.1,213.5z"/>
<g>
	<defs>
		<path id="SVGID_3_" d="M641.8,124.4h75.3c16.4,0,28.7,3.5,36.8,10.6c8.2,7.1,12.2,17.2,12.2,30.2c0,13.5-4.4,24-13.3,31.5
			c-8.9,7.6-22.5,11.3-40.8,11.3h-24.8v-27h-45.5L641.8,124.4L641.8,124.4z M687.3,208.1h-45.5v49.4h45.5V208.1z M687.3,181.1h11.1
			c8.7,0,14.8-1.4,18.4-4.1c3.4-2.5,5.3-6.4,5.3-10.6c0.1-4-1.6-7.9-4.6-10.6c-3-2.9-8.8-4.4-17.3-4.4h-12.9L687.3,181.1
			L687.3,181.1z M777.6,124.4h45.3v100.4h70.7v32.8h-116L777.6,124.4L777.6,124.4z M994.1,124.4h45.2v79.4c0,7.6-1.3,15.2-4.1,22.3
			c-2.7,7-7.1,13.3-12.7,18.4c-5.2,4.9-11.4,8.6-18.2,11c-8.8,2.9-19.4,4.4-31.7,4.4c-7.8,0-15.6-0.5-23.3-1.4
			c-8.4-0.9-15.5-2.7-21.1-5.4c-5.9-2.8-11.1-6.7-15.6-11.5c-4.3-4.3-7.6-9.5-9.6-15.3c-2.8-8.5-4.2-16-4.2-22.5v-79.4H944v81.3
			c0,7.3,2.2,13,6.6,17c4.4,4,10.6,6.1,18.5,6.1c7.8,0,13.9-2,18.4-6s6.6-9.7,6.6-17.1L994.1,124.4L994.1,124.4z M1047.1,213.5
			l43.1-2.4c0.9,6.4,2.8,11.2,5.7,14.5c4.6,5.4,11.3,8.1,20,8.1c6.5,0,11.5-1.4,15-4.1c3.5-2.7,5.3-5.9,5.2-9.6c0-3.4-1.6-6.5-5-9.3
			s-11.1-5.3-23.2-7.7c-19.9-4.1-34-9.4-42.5-16.1c-8.5-6.7-12.7-15.3-12.8-25.7c0-7,2.3-13.8,6.6-19.4c4.4-6.1,10.9-10.9,19.7-14.3
			c8.8-3.5,20.8-5.2,36-5.2c18.7,0,33,3.2,42.9,9.5c9.8,6.3,15.7,16.4,17.5,30.2l-42.7,2.3c-1.1-6-3.5-10.4-7.2-13.1
			c-3.7-2.7-8.7-4.1-15-4.1c-5.3,0-9.2,1-11.9,3c-2.5,1.7-4,4.4-4,7.4c0,2.1,1.1,4,3.3,5.7s7.2,3.4,15.2,4.9
			c19.8,3.9,34,7.8,42.5,11.8c8.6,4,14.8,8.9,18.7,14.8c3.9,5.8,5.9,12.7,5.9,19.7c0,8.5-2.7,16.8-7.8,23.6
			c-5.2,7.2-12.5,12.7-21.8,16.4c-9.4,3.7-21.1,5.6-35.3,5.6c-24.9,0-42.2-4.4-51.8-13.1S1048.3,226.9,1047.1,213.5L1047.1,213.5z"
			/>
	</defs>
	<clipPath id="SVGID_4_">
		<use xlink:href="#SVGID_3_"  style="overflow:visible;"/>
	</clipPath>
	<path class="st4" d="M641.8,122.2h538.3v137.7H641.8V122.2z"/>
</g>
<path class="st5" d="M1012.5,290.5l10.6,10.3C1020.3,296.8,1016.7,293.3,1012.5,290.5z"/>
<path class="st6" d="M794,324.6l0,2.8l1.8,1.8L794,324.6z"/>
<path class="st7" d="M664.8,376.8l1.5,0l-1.1-1.1L664.8,376.8z"/>
<path class="st8" d="M623.8,311.9c-9.2-15.7-22.9-23-50-25.1l40.1,35L623.8,311.9z"/>
<path class="st7" d="M566.7,312.8c15.4-0.2,31.5,5.7,37.5,16.9l9.7-7.9l-40.1-35c-2.4-0.2-4.9-0.3-7.5-0.2
	c-10.5,0.1-20.9,2.3-30.5,6.5l21.5,20.9C560.4,313.3,563.5,312.9,566.7,312.8z"/>
<path class="st9" d="M557.3,314l-21.5-20.9c-9.7,4.3-18.3,10.7-25.1,18.8l21.2,20.6C537.5,323.2,546.7,316.5,557.3,314z M627,395.2
	l-25.6-11.9c-1.8,3.7-4.2,7-7.2,9.9l19.8,19.2C619.1,407.3,623.5,401.6,627,395.2z"/>
<path class="st7" d="M524.8,359c-0.2-9.3,2.2-18.5,7-26.5l-21.2-20.6c-7.1,8.5-12,18.5-14.3,29.3l29.9,29.1
	C525.4,366.6,524.9,362.8,524.8,359z M567.8,398.9c-3-0.1-6-0.4-9-1l26.9,30.2c10.7-2.6,20.5-8,28.3-15.7l-19.8-19.2
	C587.7,399.6,578.4,398.8,567.8,398.9L567.8,398.9z"/>
<path class="st10" d="M529.2,369.3l-29.9-29.1c-1.3,6-1.9,12.1-1.9,18.2c0.1,10,2.1,19.9,6.1,29.1l37,36c9.8,4,20.2,5.9,30.8,5.7
	c5.8-0.1,11.7-0.8,17.3-2.1l-25.4-24.7C546.4,399.7,533.3,386.9,529.2,369.3L529.2,369.3z"/>
<path class="st11" d="M668.2,287.6l-1.3,3.3l65.5,63.7L705.2,287L668.2,287.6z"/>
<path class="st12" d="M655.1,322.6l21.3,20.7l10.6-31.3l23.8,62.7l-0.7-0.2l50.2,47.4h0.2l-28.3-69l-65.4-62.9L655.1,322.6
	L655.1,322.6z"/>
<path class="st8" d="M666.3,375.5l26,23.5h27.5l8.5,24l32-0.5l-50.2-47.6L666.3,375.5L666.3,375.5z M676.4,343.4l-21.3-20.7
	l-11.8,31.8l21.9,21.3L676.4,343.4L676.4,343.4z"/>
<path class="st7" d="M664.8,375.4l0.4-0.4l-21.9-20.9l-11.8,32l23.5,22.6l2.9-8.5l34.4-1.3l-26-23.4L664.8,375.4L664.8,375.4z"/>
<path class="st9" d="M619.7,416.7l9.1,7.6l20-0.3l6.2-16.3l-23.5-22.8L619.7,416.7L619.7,416.7z"/>
<path class="st13" d="M912.8,284.1l-30.1,0.4l30.5,30.6L912.8,284.1L912.8,284.1z"/>
<path class="st14" d="M882.6,323.4l0.1,6.3l31.2,29.3l-0.6-43.9l-30.5-30.6l-10.5,0.1l-9,24.1l18.7,19.1L882.6,323.4L882.6,323.4z"
	/>
<path class="st15" d="M882.7,329.7l0.6,43.8l31.2,29.3l-0.6-43.8L882.7,329.7L882.7,329.7z"/>
<path class="st15" d="M883.3,328l-20.1-19.3l-11.8,31.7l19.7,19.1L883.3,328z"/>
<path class="st6" d="M883.9,417.4l8,3.2l22.8-0.3l-0.2-17.4l-31.2-29.3L883.9,417.4L883.9,417.4z M851.3,340.4l-11.7,31.2
	l-28.5-70.2L795,285.8l-31.5,0.4l0.2,12l31.2,29.1l0-2.8l1.2,4.6l63.5,62.1l11.7-31.7L851.3,340.4L851.3,340.4z"/>
<path class="st16" d="M763.6,298.3l0.6,43.8l31.2,29.1l-0.6-43.8L763.6,298.3z M824.5,400.9l21.3,6.5l13.3-16.2l-63.8-62.1
	L824.5,400.9z"/>
<path class="st11" d="M764.9,385.9l31.2,29.1l-0.6-43.9l-31.2-29.1L764.9,385.9z"/>
<path class="st12" d="M765.4,422.4l30.7-0.4l-0.1-6.8l-31.2-29.1L765.4,422.4z"/>
<path class="st17" d="M1010.1,325.8l26.6,25.9c3-6.5,4.5-13.6,4.3-20.7c0-9.3-2.8-18.4-8.1-26.1l-10.6-10.3c-7.5-5-17-7.8-28.6-7.6
	l-23.4,0.3l26.8,26C1003.3,314.9,1008.2,319.7,1010.1,325.8L1010.1,325.8z"/>
<path class="st18" d="M960.4,313.8l28.8-0.4c2.3-0.2,4.7,0,6.9,0.4l-26.8-26.5l-40,0.6v2.2l31.2,29.1L960.4,313.8z M1036.7,352.7
	l-26.7-25.9c0.5,1.8,0.8,3.6,0.8,5.4c0.2,11.5-8.3,19.1-19.8,19.4l22.6,22C1023.8,369.9,1032.1,362.4,1036.7,352.7L1036.7,352.7z"/>
<path class="st13" d="M990.7,350.5l-28.8,0.4l-0.4-29.7l-31.2-29.1l0.6,43.8l42,41.2l22-0.3c7-0.1,13.2-0.7,18.7-2.8l-22.6-22.8
	C991,351.3,990.8,350.5,990.7,350.5z"/>
<path class="st14" d="M931.6,378.8l31.2,29.1l-0.5-31.6l10.7-0.1l-42-41.2L931.6,378.8L931.6,378.8z"/>
<path class="st15" d="M932.2,417.6l3.6,2.4l27.2-0.4l-0.2-16.7l-31.2-29.1L932.2,417.6L932.2,417.6z"/>
<path class="st19" d="M1152.5,297.9c-13.6-12.2-31.4-18.5-52.7-18.6l38.7,37.6L1152.5,297.9z"/>
<path class="st20" d="M1064.7,288.4l19.7,19.1c3.8-1.6,7.9-2.4,12-2.4c13.5-0.2,28.6,4.4,40,14.6l2.1-2.9l-38.7-37.6h-1.7
	C1084.6,279.5,1073.3,282.9,1064.7,288.4z M1155,377.4c0-25.9-21-34.6-41.2-39.6l41.2,40.1V377.4z"/>
<path class="st5" d="M1046.7,314.1l50.7,49.3l1.1,0.2c16.1,3.5,28.2,6.9,28.3,17.3c0,3-1.1,5.9-3,8.2l20.2,19.7
	c8.6-7.9,12.7-18.7,12.7-30.9l-41.2-40.1c-3.9-1-7.7-1.8-11.4-2.6c-16.1-3.5-27.8-6.3-27.9-15.6c-0.1-5.3,2.7-9.6,8.2-12.1
	l-19.7-19.1C1054.9,294.7,1048.6,303.8,1046.7,314.1L1046.7,314.1z"/>
<path class="st17" d="M1097.3,363.4l-50.7-49.3c-0.5,2.6-0.7,5.2-0.7,7.8C1046.4,352.4,1074.7,358.6,1097.3,363.4L1097.3,363.4z
	 M1102.8,396.9c-6.1,0.1-12.2-0.7-18-2.4l28.2,27.5c13.5-1.8,23.8-6.4,31-13.1l-20.3-19.7C1120.2,393.5,1113.2,396.8,1102.8,396.9
	L1102.8,396.9z"/>
<path class="st18" d="M1058.4,378.8l-13.8,19.9l16,15.6c11.1,5.5,24.7,8.7,41.1,8.5c3.8,0,7.6-0.3,11.3-0.8l-28.2-27.5
	C1074.8,391.6,1065.7,386.2,1058.4,378.8L1058.4,378.8z"/>
<path d="M570.1,430.1c-43.1,0.6-76.1-30.7-76.7-72.8c-0.6-41.7,32-73.6,75.8-74.2c20.7-0.3,42.6,8.5,57.1,23.1l2.8,2.8L605.8,338
	l-3.5-3.9c-8.8-9.9-21.2-15.9-32.3-15.7c-21.1,0.3-36.7,16.6-36.4,37.9s16.4,37.3,37.5,37c10.8-0.1,23.1-5.9,32-15.1l3.2-3.3
	l24.3,25.7l-2.9,3C612.7,419.7,590.5,429.8,570.1,430.1L570.1,430.1z M569.3,291.9c-38.8,0.5-67.6,28.6-67.1,65.3
	c0.5,37.1,29.7,64.7,67.8,64.2c16.9-0.2,35.2-8.1,48.5-20.7l-12.4-13c-10.2,9-22.9,14.4-34.9,14.6c-25.7,0.4-46-19.7-46.4-45.7
	s19.5-46.4,45.1-46.8c12-0.2,25.2,5.5,35.3,15l11.9-15C603.9,298.2,586.9,291.8,569.3,291.9L569.3,291.9z"/>
<path d="M770.1,426l-42.4,0.6l-11-26.3l-57,0.8l-10.3,26.5l-41.3,0.6l60.8-145.6l37.4-0.5L770.1,426z M733.5,417.7l23.2-0.3
	L700.6,291l-25.9,0.4l-53.4,127.9l22-0.3l10.3-26.6l68.8-1L733.5,417.7z M715.8,375.7l-56,0.8l27.2-69.4L715.8,375.7z M672.8,367.6
	l29.9-0.4l-15.4-36.6L672.8,367.6z"/>
<path d="M917.9,423.9l-36.3,0.5l-1.1-76.1l-28,62.8l-25.6,0.4l-29.9-62l1.1,76.1l-36.5,0.5l-2-144.7l41.5-0.6l38,76.8l35.6-77.8
	l41.3-0.6L917.9,423.9z M890.2,415.5l18.8-0.3l-1.8-127.1l-27,0.4L839.3,378l-43.6-88.4l-27.2,0.4l1.8,127.1l19-0.3l-1.5-107.2
	l44.6,92.8l14.4-0.2l42-94L890.2,415.5z M967,423.2l-39.5,0.5l-2-144.7l62.1-0.9c36.8-0.5,59,18.5,59.5,50.8
	c0.5,34-21.2,54.6-58,55.1l-22.6,0.3L967,423.2z M936.2,414.9l21.9-0.3l-0.5-38.8l31.4-0.4c32.2-0.5,49.8-16.9,49.3-46.2
	c-0.4-27.6-18.3-42.5-50.6-42.1l-53.3,0.8L936.2,414.9z M987.1,358.4l-29.8,0.4l-0.8-54.8l29.8-0.4c19.8-0.3,31.3,9.4,31.6,26.7
	C1018.2,347.9,1007,358.2,987.1,358.4L987.1,358.4z M966,350l21-0.3c15.1-0.2,22.3-6.5,22.1-19.2c-0.2-12.3-7.6-18.2-22.7-18
	l-21,0.3L966,350z"/>
<path d="M1099.9,426.2c-22.7,0-46.2-8.5-62.8-22.6l-2.6-2.2l16.3-33.4l4.3,3.8c12.8,11.4,31.4,19.3,45.2,19.3
	c5.9,0,15.8-1.1,15.8-8.6c0-7-9.3-10.1-24.6-14.3c-20.2-5.6-47.9-13.3-47.9-44.5c0-26.7,22.9-44.6,57-44.6
	c19.1,0,39.3,5.8,54.1,15.5l3.2,2.1l-15.4,33.4l-4.2-2.5c-13.2-7.9-29.7-13.4-40.1-13.4c-3.9,0-12.9,0.6-12.9,6.7
	c0,6.7,9.1,9.8,24.1,14.1c20.4,5.9,48.3,14,48.2,45.9C1157.5,408.3,1134.9,426.2,1099.9,426.2L1099.9,426.2z M1045.3,399
	c14.9,11.5,35,18.4,54.5,18.4c29.7,0,48.8-14.4,48.8-36.6c0.1-25.2-21.2-31.4-41.8-37.4c-15.7-4.5-30.4-8.8-30.4-22.6
	c0-7.5,5.7-15.5,21.7-15.5c10.8,0,26.6,4.8,40.4,12.2l8.2-17.6c-13-7.6-29.9-12-46-12c-29.3,0-48.2,14.1-48.2,35.8
	c0,24.5,21.1,30.4,41.4,36c15.9,4.4,31,8.6,31,22.8c0,10.9-9.2,17.4-24.6,17.4c-14.3,0-32.7-7.2-46.7-17.9L1045.3,399z M83.9,305.8
	H42.1v-14.7h100.3v14.7h-42v117.5H83.9V305.8z M152.3,291.1h86.6v14.7h-70.2v42.6h68.8v14.7h-68.8v45.6h70.1v14.7h-86.6V291.1z
	 M247.8,357.3c0-40.6,29.9-68.4,67.4-68.4c24,0,40.2,11.3,50.7,26.2l-13.9,7.7c-8.4-12.1-22.2-19.2-36.9-19.2
	c-28.3,0-50.3,22.2-50.3,53.7c0,31.3,22,53.7,50.3,53.7c14.7,0.1,28.5-7.1,36.9-19.2l14.1,7.7c-11.1,15.1-27,26.2-50.9,26.2
	C277.7,425.7,247.8,397.9,247.8,357.3L247.8,357.3z M469,362.7h-77.3v60.6h-16.5V291.1h16.5V348H469v-56.9h16.5v132.2H469V362.7
	L469,362.7z"/>
<text transform="matrix(1 0 0 1 136.63 507.82)" class="st21 st22">Use code</text>
<text transform="matrix(1 0 0 1 513.9631 510.8197)" class="st24 st25 st22">ThisIsALonger</text>
<path d="M112.8,539.1h10.6l9.7,18.6l9.6-18.6h10.4L138,568.4v22.4h-10v-22.4L112.8,539.1z M173.7,551.5c3.6,0,7.1,0.9,10.2,2.7
	c6.3,3.5,10.1,10.2,10.1,17.4c0,3.6-0.9,7.1-2.7,10.1c-1.7,3.1-4.3,5.6-7.3,7.4c-3.1,1.8-6.6,2.7-10.2,2.7c-5.3,0.1-10.3-2-14-5.8
	c-7.8-8-7.7-20.8,0.3-28.7c0.2-0.2,0.3-0.3,0.5-0.5C164.1,553.4,168.8,551.5,173.7,551.5L173.7,551.5z M173.9,560.5
	c-2.8-0.1-5.5,1.1-7.4,3.1c-2,2.2-3.1,5-3,8c-0.1,3,0.9,5.9,2.9,8.1c1.9,2,4.6,3.2,7.4,3.1c2.8,0.1,5.6-1.1,7.5-3.1
	c3.9-4.6,4-11.4,0.1-16C179.4,561.6,176.7,560.5,173.9,560.5L173.9,560.5z M197.5,552.5h9.7v18.4c-0.1,2.5,0.1,5,0.7,7.5
	c0.4,1.3,1.3,2.4,2.4,3.2c1.2,0.8,2.6,1.2,4,1.2c1.4,0,2.9-0.3,4.1-1.1c1.2-0.8,2-2,2.5-3.4c0.4-1.1,0.6-3.5,0.6-7.1v-18.7h9.6v16.2
	c0,6.7-0.5,11.2-1.6,13.7c-1.2,2.8-3.1,5.2-5.7,6.9c-2.9,1.7-6.2,2.5-9.6,2.4c-4.2,0-7.6-0.9-10.2-2.8c-2.6-1.9-4.6-4.7-5.5-7.8
	c-0.7-2.3-1.1-6.5-1.1-12.7L197.5,552.5L197.5,552.5z M275.7,557.9l-5.9,5.9c-2.4-2.4-4.6-3.6-6.6-3.6c-0.9-0.1-1.8,0.2-2.5,0.7
	c-0.6,0.4-0.9,1-0.9,1.7c0,0.5,0.2,1,0.6,1.4c0.9,0.7,1.8,1.3,2.9,1.8l3.5,1.8c3.7,1.8,6.2,3.7,7.6,5.6c3.3,4.8,2.6,11.3-1.7,15.2
	c-2.5,2.3-5.8,3.4-10,3.4c-5.3,0.1-10.3-2.3-13.4-6.5l5.9-6.4c1.1,1.3,2.5,2.4,4,3.2c1.2,0.7,2.6,1.1,4,1.2c1.1,0.1,2.2-0.3,3.1-0.9
	c0.7-0.5,1.1-1.3,1.2-2.1c0-1.5-1.4-2.9-4.2-4.3l-3.2-1.6c-6.2-3.1-9.3-7-9.3-11.7c0-3,1.3-5.8,3.5-7.8c2.5-2.2,5.7-3.3,9-3.2
	C268.1,551.6,272.7,553.9,275.7,557.9L275.7,557.9z M307.9,552.5h9.6v38.2h-9.6v-4c-1.6,1.6-3.5,2.9-5.6,3.8c-1.9,0.8-4,1.2-6.1,1.2
	c-4.9,0-9.6-2.1-12.8-5.8c-3.6-3.9-5.6-9-5.4-14.3c0-5.9,1.7-10.7,5.2-14.5c3.2-3.6,7.9-5.7,12.7-5.7c2.2,0,4.4,0.4,6.5,1.3
	c2.1,0.9,4,2.2,5.6,3.9L307.9,552.5L307.9,552.5z M297.8,560.4c-2.8-0.1-5.5,1.1-7.4,3.2c-2,2.2-3.1,5.1-2.9,8.1c-0.1,3,1,5.9,3,8.2
	c1.9,2.1,4.6,3.3,7.4,3.2c2.8,0.1,5.6-1.1,7.5-3.2c2-2.2,3.1-5.2,3-8.2c0.1-3-1-5.9-3-8.1C303.3,561.4,300.6,560.3,297.8,560.4z
	 M318.7,552.5h9.8l9.7,22.6l9.6-22.6h9.7l-16.3,38.2H335L318.7,552.5z M397.1,574.4h-30.8c0.3,2.5,1.6,4.8,3.6,6.5
	c2.1,1.7,4.7,2.5,7.4,2.4c3.5,0.1,6.8-1.3,9.2-3.8l8.1,3.8c-1.8,2.7-4.3,4.9-7.2,6.3c-3.1,1.4-6.6,2.1-10,2.1
	c-6,0-10.9-1.9-14.7-5.7c-3.8-3.8-5.9-8.9-5.7-14.2c-0.2-5.4,1.9-10.7,5.6-14.5c3.7-3.8,8.8-5.9,14.1-5.8c6,0,10.9,1.9,14.7,5.8
	c3.8,3.9,5.7,8.9,5.7,15.3L397.1,574.4z M387.5,566.9c-0.6-2.1-1.9-3.9-3.8-5.2c-1.9-1.3-4.2-2-6.5-2c-2.5,0-5,0.8-7,2.2
	c-1.6,1.4-2.8,3.1-3.5,5L387.5,566.9L387.5,566.9z"/>
<path class="st26" d="M448.1,545l-6.8,6.6c-3.1-3.2-6.2-4.8-9.2-4.8c-1.6-0.1-3.1,0.4-4.3,1.4c-1,0.8-1.6,2-1.7,3.3
	c0.1,1.2,0.6,2.3,1.5,3.1c1,1.1,2.9,2.2,5.8,3.4c5.2,2.2,8.8,4,10.7,5.5c1.9,1.5,3.4,3.3,4.4,5.5c1.1,2.2,1.6,4.7,1.5,7.2
	c0,2.5-0.5,5.1-1.6,7.3c-1,2.1-2.4,3.9-4.2,5.3c-2.3,1.5-4.8,2.6-7.5,3v9.4h-6.6v-9.2c-2.7-0.3-5.4-1-7.8-2.3
	c-3.1-1.7-5.8-3.9-8.2-6.5l6.7-6.9c4.3,4.6,8.4,6.9,12.5,6.9c2,0,3.9-0.7,5.3-2.1c2.6-2.4,2.9-6.4,0.8-9.3c-1-1.2-2.8-2.5-5.5-3.7
	c-5.6-2.6-9.4-4.6-11.3-6.1c-1.8-1.4-3.3-3.1-4.4-5.1c-1-1.9-1.5-3.9-1.5-6c0-3.4,1.4-6.7,3.9-9.1c2.6-2.5,6.1-4,9.8-4.1v-3.5h6.6v4
	c2,0.4,4,1.2,5.8,2.2C444.6,541.7,446.4,543.2,448.1,545L448.1,545z"/>
<path d="M457,581l6.9,3.5l-8.7,14.8l-4.8-2.3L457,581z M484.4,539.1h9.8v51.7h-9.8V539.1z M539.1,557.9l-5.9,5.9
	c-2.4-2.4-4.6-3.6-6.6-3.6c-0.9-0.1-1.8,0.2-2.5,0.7c-0.6,0.4-0.9,1-0.9,1.7c0,0.5,0.2,1,0.6,1.4c0.9,0.7,1.8,1.3,2.9,1.8l3.5,1.8
	c3.7,1.8,6.2,3.7,7.6,5.6c3.3,4.8,2.6,11.3-1.7,15.2c-2.5,2.3-5.8,3.4-10,3.4c-5.3,0.1-10.3-2.3-13.4-6.5l5.9-6.4
	c1.1,1.3,2.5,2.4,4,3.2c1.2,0.7,2.6,1.1,4,1.2c1.1,0.1,2.2-0.3,3.1-0.9c0.7-0.5,1.1-1.3,1.2-2.1c0-1.5-1.4-2.9-4.2-4.3l-3.2-1.6
	c-6.2-3.1-9.3-7-9.3-11.7c0-3,1.3-5.8,3.5-7.8c2.5-2.2,5.7-3.3,9-3.2C531.6,551.6,536.2,553.9,539.1,557.9L539.1,557.9z
	 M571.3,552.5h9.6v38.2h-9.6v-4c-1.6,1.6-3.5,2.9-5.6,3.8c-1.9,0.8-4,1.2-6.1,1.2c-4.9,0-9.6-2.1-12.8-5.8c-3.6-3.9-5.6-9-5.4-14.3
	c0-5.9,1.7-10.7,5.2-14.5c3.2-3.6,7.9-5.7,12.7-5.7c2.2,0,4.4,0.4,6.5,1.3c2.1,0.9,4,2.2,5.6,3.9L571.3,552.5L571.3,552.5z
	 M561.2,560.4c-2.8-0.1-5.5,1.1-7.4,3.2c-2,2.2-3.1,5.1-2.9,8.1c-0.1,3,1,5.9,3,8.2c1.9,2.1,4.6,3.3,7.4,3.2
	c2.8,0.1,5.6-1.1,7.5-3.2c2-2.2,3.1-5.2,3-8.2c0.1-3-1-5.9-3-8.1C566.8,561.4,564.1,560.3,561.2,560.4L561.2,560.4z M582.2,552.5
	h9.8l9.7,22.6l9.6-22.6h9.7l-16.3,38.2h-6.2L582.2,552.5z M660.6,574.4h-30.8c0.3,2.5,1.6,4.8,3.6,6.5c2.1,1.7,4.7,2.5,7.4,2.4
	c3.5,0.1,6.8-1.3,9.2-3.8l8.1,3.8c-1.8,2.7-4.3,4.9-7.2,6.3c-3.1,1.4-6.6,2.1-10,2.1c-6,0-10.9-1.9-14.7-5.7
	c-3.8-3.8-5.8-8.9-5.7-14.2c-0.2-5.4,1.9-10.7,5.6-14.5c3.7-3.8,8.8-5.9,14.2-5.8c6,0,10.9,1.9,14.7,5.8s5.7,8.9,5.7,15.3
	L660.6,574.4z M651,566.9c-0.6-2.1-1.9-3.9-3.8-5.2c-1.9-1.3-4.2-2-6.5-2c-2.5,0-5,0.8-7,2.2c-1.6,1.4-2.8,3.1-3.5,5L651,566.9
	L651,566.9z"/>
<path class="st26" d="M711.6,545l-6.8,6.6c-3.1-3.2-6.2-4.8-9.2-4.8c-1.6-0.1-3.1,0.4-4.3,1.4c-1,0.8-1.6,2-1.7,3.3
	c0.1,1.2,0.6,2.3,1.5,3.1c1,1.1,2.9,2.2,5.8,3.4c5.2,2.2,8.8,4,10.7,5.5c1.9,1.5,3.4,3.3,4.4,5.5c1.1,2.2,1.6,4.7,1.5,7.2
	c0,2.5-0.5,5.1-1.7,7.3c-1,2.1-2.4,3.9-4.2,5.3c-2.3,1.5-4.8,2.6-7.5,3v9.4h-6.6v-9.2c-2.7-0.3-5.4-1-7.8-2.3
	c-3.1-1.7-5.8-3.9-8.2-6.5l6.7-6.9c4.3,4.6,8.4,6.9,12.5,6.9c2,0,3.9-0.7,5.3-2.1c2.6-2.4,2.9-6.4,0.8-9.3c-1-1.2-2.8-2.5-5.5-3.7
	c-5.6-2.6-9.4-4.6-11.3-6.1c-1.8-1.4-3.3-3.1-4.4-5.1c-1-1.9-1.5-3.9-1.5-6c0-3.4,1.4-6.7,3.9-9.1c2.6-2.5,6.1-4,9.8-4.1v-3.5h6.6v4
	c2,0.4,4,1.2,5.8,2.2C708,541.7,709.9,543.2,711.6,545L711.6,545z"/>
<path d="M721.1,580.8c1.5,0,2.9,0.6,3.9,1.6c1.1,1,1.6,2.4,1.6,3.9c-0.3,3-2.9,5.3-6,5c-2.7-0.2-4.8-2.4-5-5c0-1.5,0.6-2.9,1.6-3.9
	C718.3,581.3,719.7,580.7,721.1,580.8z M744.7,539.1h9.7l7.5,33l9.2-33h8.2l9.4,33l7.4-33h9.7L794,590.8h-9.4l-9.5-33.4l-9.3,33.4
	h-9.3L744.7,539.1z M811.8,536.8c1.6,0,3.2,0.6,4.3,1.8c1.2,1.2,1.8,2.7,1.8,4.4c0,1.6-0.6,3.2-1.8,4.4c-1.1,1.2-2.7,1.8-4.3,1.8
	c-1.7,0-3.2-0.6-4.4-1.8c-1.2-1.2-1.8-2.8-1.8-4.5C805.7,539.5,808.4,536.8,811.8,536.8L811.8,536.8z M807,552.5h9.6v38.2H807V552.5
	z M821,552.5h9.6v3.9c1.8-1.6,3.8-2.9,5.9-3.8c1.7-0.7,3.6-1.1,5.4-1.1c3.6-0.1,7.1,1.4,9.7,4c2.2,2.3,3.3,5.6,3.3,10v25.3h-9.5V574
	c0-4.6-0.2-7.6-0.6-9.1c-0.3-1.3-1.1-2.5-2.1-3.4c-1.1-0.8-2.4-1.2-3.8-1.2c-1.9,0-3.7,0.7-5,2c-1.5,1.5-2.5,3.3-2.9,5.4
	c-0.4,2.6-0.5,5.2-0.4,7.8v15.3H821V552.5z M865.1,580.8c1.5,0,2.9,0.6,3.9,1.6c1.1,1,1.6,2.4,1.6,3.9c-0.3,3-2.9,5.3-6,5
	c-2.7-0.2-4.8-2.4-5-5c0-1.5,0.6-2.9,1.6-3.9C862.2,581.3,863.6,580.7,865.1,580.8z M888.6,539.1h9.7l7.5,33l9.2-33h8.2l9.4,33
	l7.4-33h9.7L938,590.8h-9.4l-9.6-33.4l-9.3,33.4h-9.3L888.6,539.1z M955.7,536.8c1.6,0,3.2,0.7,4.3,1.8c1.2,1.2,1.8,2.8,1.8,4.4
	c0,1.6-0.6,3.2-1.8,4.4c-1.1,1.2-2.7,1.8-4.3,1.8c-1.7,0-3.2-0.6-4.4-1.8c-1.2-1.2-1.8-2.8-1.8-4.5
	C949.6,539.5,952.3,536.8,955.7,536.8C955.7,536.8,955.7,536.8,955.7,536.8L955.7,536.8z M950.9,552.5h9.6v38.2h-9.6V552.5z
	 M964.9,552.5h9.6v3.9c1.8-1.6,3.8-2.9,5.9-3.8c1.7-0.7,3.6-1.1,5.4-1.1c3.6-0.1,7.1,1.4,9.7,4c2.2,2.3,3.3,5.6,3.3,10v25.3h-9.5
	V574c0-4.6-0.2-7.6-0.6-9.1c-0.3-1.3-1.1-2.5-2.1-3.4c-1.1-0.8-2.4-1.2-3.8-1.2c-1.9,0-3.7,0.7-5,2c-1.5,1.5-2.5,3.3-2.9,5.4
	c-0.4,2.6-0.5,5.2-0.4,7.8v15.3h-9.6V552.5z M1009,580.8c1.5,0,2.9,0.6,3.9,1.6c1.1,1,1.6,2.4,1.6,3.9c-0.3,3-2.9,5.3-6,5
	c-2.7-0.2-4.8-2.4-5-5c0-1.5,0.6-2.9,1.6-3.9C1006.2,581.3,1007.5,580.7,1009,580.8z M1040.7,551.5c3,0,5.5,2.5,5.5,5.5
	s-2.5,5.5-5.5,5.5c-1.4,0-2.8-0.6-3.9-1.6c-1.1-1-1.6-2.4-1.6-3.9C1035.2,554,1037.6,551.5,1040.7,551.5L1040.7,551.5z
	 M1040.7,580.8c1.5,0,2.9,0.6,3.9,1.6c1.1,1,1.6,2.4,1.6,3.9c-0.3,3-2.9,5.3-6,5c-2.7-0.2-4.8-2.4-5-5c0-1.5,0.6-2.9,1.6-3.9
	C1037.8,581.3,1039.2,580.7,1040.7,580.8z M1060.4,605.8h-12.2c4-4.5,7.2-9.7,9.3-15.3c2.1-6.1,3.2-12.5,3.1-18.9
	c0.1-6.9-1-13.7-3.4-20.2c-2.3-5.3-5.3-10.2-9-14.6h12.2c3.4,5.2,6,10.8,7.9,16.7c1.6,6,2.3,12.1,2.2,18.3
	c0.1,6.1-0.7,12.2-2.4,18.1C1066.4,595.6,1063.8,600.9,1060.4,605.8L1060.4,605.8z"/>
</svg>
